<?xml version="1.0" encoding="UTF-8" standalone="no"?>
<!-- Created with Inkscape (http://www.inkscape.org/) -->

<svg
   width="88.567802"
   height="47.719059"
   viewBox="0 0 23.433561 12.625671"
   version="1.1"
   id="svg1304"
   inkscape:version="1.2 (dc2aeda, 2022-05-15)"
   sodipodi:docname="logo1.svg"
   inkscape:export-filename="../../work/git/eshop/src/assets/eshop.svg"
   inkscape:export-xdpi="96"
   inkscape:export-ydpi="96"
   xmlns:inkscape="http://www.inkscape.org/namespaces/inkscape"
   xmlns:sodipodi="http://sodipodi.sourceforge.net/DTD/sodipodi-0.dtd"
   xmlns="http://www.w3.org/2000/svg"
   xmlns:svg="http://www.w3.org/2000/svg">
  <sodipodi:namedview
     id="namedview1306"
     pagecolor="#ffffff"
     bordercolor="#000000"
     borderopacity="0.25"
     inkscape:showpageshadow="2"
     inkscape:pageopacity="0.31764706"
     inkscape:pagecheckerboard="0"
     inkscape:deskcolor="#d1d1d1"
     inkscape:document-units="mm"
     showgrid="false"
     inkscape:zoom="4.7579453"
     inkscape:cx="34.994097"
     inkscape:cy="-3.7831456"
     inkscape:window-width="1728"
     inkscape:window-height="1052"
     inkscape:window-x="0"
     inkscape:window-y="65"
     inkscape:window-maximized="0"
     inkscape:current-layer="text1129" />
  <defs
     id="defs1301" />
  <g
     inkscape:label="Layer 1"
     inkscape:groupmode="layer"
     id="layer1"
     transform="translate(-1.1809941,-0.82633869)">
    <g
       aria-label="SET"
       id="text1129"
       style="font-size:8.60061px;font-family:'Honest Maria';-inkscape-font-specification:'Honest Maria';text-align:center;text-anchor:middle;fill:#2b0000;stroke-width:0;stop-color:#000000"
       transform="matrix(0.64788733,0,0,0.64788733,13.55567,-11.078012)"
       inkscape:label="text1129">
      <g
         aria-label="eshop"
         id="text2369"
         style="font-size:12.5274px;font-family:'Josefin Sans';-inkscape-font-specification:'Josefin Sans';fill:#ffffff;stop-color:#000000">
        <path
           id="path3061"
           style="font-family:'Arial Rounded MT Bold';-inkscape-font-specification:'Arial Rounded MT Bold, ';fill:#ffffff"
           d="m 12.120586,29.530339 v 0.201858 q 0.471001,-0.581105 0.978704,-0.850248 0.507702,-0.275261 1.149976,-0.275261 0.770728,0 1.419119,0.397598 0.648391,0.397599 1.021522,1.16221 0.379247,0.764612 0.379247,1.810601 0,0.770729 -0.220208,1.41912 -0.214091,0.642274 -0.593339,1.08269 -0.379247,0.4343 -0.899183,0.672858 -0.51382,0.232442 -1.107158,0.232442 -0.715677,0 -1.205029,-0.287494 -0.483234,-0.287494 -0.923651,-0.844131 v 2.507927 q 0,1.101041 -0.801313,1.101041 -0.471001,0 -0.623923,-0.287494 -0.152922,-0.281377 -0.152922,-0.825781 v -7.205702 q 0,-0.477118 0.207974,-0.70956 0.207974,-0.238558 0.568871,-0.238558 0.35478,0 0.574988,0.244675 0.226325,0.238559 0.226325,0.691209 z m 3.272539,2.428408 q 0,-0.660625 -0.201858,-1.131626 -0.201857,-0.477118 -0.562754,-0.72791 -0.35478,-0.25691 -0.789079,-0.25691 -0.691209,0 -1.168327,0.544404 -0.471001,0.544403 -0.471001,1.602626 0,0.997054 0.471001,1.553691 0.471001,0.550521 1.168327,0.550521 0.415949,0 0.770728,-0.238559 0.35478,-0.244676 0.568872,-0.727911 0.214091,-0.483234 0.214091,-1.168326 z m -6.1291287,0.03058 q 0,0.746261 -0.232442,1.376301 -0.232442,0.63004 -0.6728584,1.082691 -0.4404164,0.45265 -1.0521059,0.697326 -0.6116894,0.238558 -1.3763012,0.238558 -0.758495,0 -1.3640675,-0.244675 Q 3.9606487,34.894856 3.5141154,34.442206 3.073699,33.983439 2.841257,33.365632 2.6149319,32.741709 2.6149319,31.989331 q 0,-0.758495 0.232442,-1.388535 0.232442,-0.63004 0.6667415,-1.076574 0.4342995,-0.446533 1.0521059,-0.685092 0.6178063,-0.244675 1.3640675,-0.244675 0.7584949,0 1.3763012,0.244675 0.6178064,0.244676 1.0582228,0.697326 0.4404164,0.45265 0.6667415,1.076574 0.232442,0.623923 0.232442,1.376301 z m -1.6760291,0 q 0,-1.021521 -0.4526502,-1.590393 -0.4465333,-0.568871 -1.2050282,-0.568871 -0.4893516,0 -0.8624822,0.25691 -0.3731305,0.250792 -0.5749881,0.746261 -0.2018575,0.495468 -0.2018575,1.156093 0,0.654508 0.1957406,1.143859 0.2018576,0.489352 0.5688712,0.752378 0.3731306,0.25691 0.874716,0.25691 0.7584949,0 1.2050282,-0.568871 0.4526502,-0.574988 0.4526502,-1.584276 z M -2.920857,27.1264 v 2.477342 q 0.3180785,-0.367014 0.6178063,-0.581105 0.3058447,-0.214091 0.6728584,-0.318078 0.3670137,-0.110104 0.78907941,-0.110104 0.63615703,0 1.12550859,0.269143 0.49546846,0.269143 0.7768456,0.782962 0.1773899,0.299728 0.2385589,0.672859 0.061169,0.367013 0.061169,0.850248 v 3.199136 q 0,0.501585 -0.232442,0.758495 -0.22632505,0.256909 -0.60557251,0.256909 -0.82578076,0 -0.82578076,-1.015404 v -2.819888 q 0,-0.801314 -0.23855889,-1.229496 -0.23855889,-0.4343 -0.90530044,-0.4343 -0.4465333,0 -0.80743,0.25691 -0.3547799,0.250793 -0.5321699,0.691209 -0.1345716,0.37313 -0.1345716,1.327366 v 2.208199 q 0,0.495468 -0.2263251,0.758495 -0.2202082,0.256909 -0.6178064,0.256909 -0.8257807,0 -0.8257807,-1.015404 V 27.1264 q 0,-0.507702 0.2140913,-0.758495 0.2202082,-0.25691 0.6116894,-0.25691 0.3975982,0 0.6178064,0.25691 0.2263251,0.256909 0.226325,0.758495 z m -3.0462135,6.074076 q 0,0.691209 -0.3364292,1.186678 -0.3364292,0.489351 -0.9970538,0.746261 -0.6545078,0.250792 -1.5965095,0.250792 -0.8991835,0 -1.541457,-0.27526 -0.642274,-0.27526 -0.948119,-0.685092 -0.305845,-0.415949 -0.305845,-0.831898 0,-0.27526 0.195741,-0.471001 0.19574,-0.19574 0.495468,-0.19574 0.263027,0 0.403715,0.128455 0.140689,0.128454 0.269144,0.360896 0.256909,0.446534 0.6116891,0.666742 0.3608968,0.220208 0.9787031,0.220208 0.5015854,0 0.8196639,-0.220208 0.3241954,-0.226325 0.3241954,-0.513819 0,-0.440417 -0.3364292,-0.642274 -0.3303123,-0.201858 -1.0949241,-0.385365 -0.8624821,-0.214091 -1.4068862,-0.446533 -0.538286,-0.238559 -0.862482,-0.623923 -0.324195,-0.385364 -0.324195,-0.948119 0,-0.501585 0.299728,-0.948118 0.299728,-0.446534 0.880833,-0.70956 0.5872214,-0.269143 1.4130022,-0.269143 0.6483908,0 1.16221,0.134571 0.519936,0.134572 0.8624821,0.360897 0.348663,0.226325 0.5260529,0.501585 0.1835069,0.275261 0.1835069,0.538287 0,0.287494 -0.1957407,0.471001 -0.1896237,0.183507 -0.5444036,0.183507 -0.2569096,0 -0.4404164,-0.146806 -0.1773899,-0.146805 -0.4098319,-0.440416 -0.1896238,-0.244676 -0.4465333,-0.391481 -0.2569096,-0.146806 -0.697326,-0.146806 -0.4526502,0 -0.752378,0.195741 -0.2997282,0.189624 -0.2997282,0.477118 0,0.263026 0.2202085,0.434299 0.2202082,0.165156 0.5933388,0.27526 0.3731306,0.110104 1.0276383,0.269144 0.7768456,0.189623 1.2661972,0.45265 0.4954684,0.263026 0.7462611,0.623923 0.2569096,0.35478 0.2569096,0.813547 z m -8.1599375,-0.801313 h -3.266421 q 0.0061,0.568871 0.226325,1.003171 0.226325,0.434299 0.593338,0.654507 0.373131,0.220209 0.819664,0.220209 0.299728,0 0.544404,-0.06729 0.250793,-0.0734 0.483235,-0.220208 0.232442,-0.152923 0.428182,-0.324196 0.195741,-0.171273 0.507702,-0.464884 0.128455,-0.110104 0.367014,-0.110104 0.25691,0 0.415949,0.140689 0.159039,0.140688 0.159039,0.397598 0,0.226325 -0.17739,0.53217 -0.17739,0.299727 -0.538286,0.581105 -0.35478,0.27526 -0.899184,0.458767 -0.538287,0.183506 -1.24173,0.183506 -1.608743,0 -2.501809,-0.917534 -0.893067,-0.917534 -0.893067,-2.489576 0,-0.740144 0.220208,-1.370184 0.220208,-0.636157 0.642274,-1.088807 0.422066,-0.452651 1.039872,-0.691209 0.617806,-0.244676 1.370185,-0.244676 0.978703,0 1.676029,0.415949 0.703442,0.409831 1.052105,1.064339 0.348663,0.654508 0.348663,1.333483 0,0.63004 -0.360896,0.819664 -0.360897,0.183507 -1.015405,0.183507 z m -3.266421,-0.948119 h 3.027862 q -0.06117,-0.856365 -0.464884,-1.278431 -0.397598,-0.428182 -1.052106,-0.428182 -0.623923,0 -1.027638,0.434299 -0.397598,0.428183 -0.483234,1.272314 z" />
      </g>
    </g>
    <path
       style="fill:#ff6600;stroke-width:0;stop-color:#000000"
       d="m 12.594291,2.2819465 0.164013,-0.1947674 0.548422,0.5894196 0.579166,0.538168 0.768807,0.6611733 0.271647,0.1896401 0.676553,0.4305336 0.840561,0.3536498 0.702181,0.1435103 0.358775,0.010256 0.51254,-0.046123 0.707295,-0.1947673 0.676538,-0.3228986 0.820059,-0.5586607 0.420285,-0.3434053 0.486908,-0.4664097 0.348526,-0.4100318 0.502292,-0.599677 L 21.010158,1.1389891 24.085392,0.82633873 24.029013,3.9374498 23.22945,3.219894 23.126942,3.3377771 22.927053,3.5376707 22.706662,3.7683147 22.49652,3.9682042 22.204371,4.214219 21.9071,4.4602381 21.507321,4.7472645 21.230547,4.9215261 20.835896,5.1572923 20.446366,5.3418074 20.036334,5.5006933 19.636556,5.6237032 19.313665,5.7310464 18.867761,5.7877236 18.309096,5.8389715 17.699179,5.8082098 17.427537,5.7671986 16.950873,5.6492973 16.402456,5.464792 15.997552,5.2751573 15.392756,4.9420045 14.987851,4.6754798 14.495813,4.2859585 14.008902,3.8502985 13.562993,3.3992677 13.142708,2.9482327 12.676302,2.4100649 12.573794,2.2716759 Z"
       id="path930-8" />
  </g>
</svg>
