<?xml version="1.0" encoding="UTF-8" standalone="no"?>
<svg
   xmlns:dc="http://purl.org/dc/elements/1.1/"
   xmlns:cc="http://creativecommons.org/ns#"
   xmlns:rdf="http://www.w3.org/1999/02/22-rdf-syntax-ns#"
   xmlns:svg="http://www.w3.org/2000/svg"
   xmlns="http://www.w3.org/2000/svg"
   xmlns:sodipodi="http://sodipodi.sourceforge.net/DTD/sodipodi-0.dtd"
   xmlns:inkscape="http://www.inkscape.org/namespaces/inkscape"
   version="1.1"
   id="svg2"
   xml:space="preserve"
   width="2666.6667"
   height="2666.6667"
   viewBox="0 0 2666.6667 2666.6667"
   sodipodi:docname="shutterstock_1427717843.eps"><metadata
     id="metadata8"><rdf:RDF><cc:Work
         rdf:about=""><dc:format>image/svg+xml</dc:format><dc:type
           rdf:resource="http://purl.org/dc/dcmitype/StillImage" /></cc:Work></rdf:RDF></metadata><defs
     id="defs6"><clipPath
       clipPathUnits="userSpaceOnUse"
       id="clipPath22"><path
         d="M 18389.8,8653.8 C 17934.5,6836.6 16418.9,5702.8 14980.2,4731.2 13039.2,3420.3 10696.4,2169.1 8383.08,1722.5 6359.6,1331.8 3247.73,1242.2 1990.24,3289.1 c -23.95,39.4 -47.23,79.1 -69.84,119.3 -771.64,1383 -368.88,2799.9 307.9,4109.2 413.73,800.4 972.05,1555.6 1107.29,2452.3 109.06,723.1 -72.63,1459.5 -313.89,2147.5 -186.49,531.9 -411.7,1059.6 -462.64,1622.9 -34.03,376.3 11.46,756.1 85.83,1126.2 768.32,3822.9 5126,4513.5 7948.21,2614.1 955.3,-642.9 1849.9,-1374.6 2756,-2088.1 882.8,-695.3 1819.4,-1305.3 2709.6,-1987.2 1481.9,-1135.3 2843.9,-2704.8 2331.1,-4751.5 z"
         id="path20" /></clipPath><linearGradient
       x1="0"
       y1="0"
       x2="1"
       y2="0"
       gradientUnits="userSpaceOnUse"
       gradientTransform="matrix(14661.6,8464.89,8464.89,-14661.6,914.289,6093.9)"
       spreadMethod="pad"
       id="linearGradient30"><stop
         style="stop-opacity:1;stop-color:#ffffff"
         offset="0"
         id="stop24" /><stop
         style="stop-opacity:1;stop-color:#dde4ff"
         offset="0.45356205"
         id="stop26" /><stop
         style="stop-opacity:1;stop-color:#dde4ff"
         offset="1"
         id="stop28" /></linearGradient></defs><sodipodi:namedview
     pagecolor="#ffffff"
     bordercolor="#666666"
     borderopacity="1"
     objecttolerance="10"
     gridtolerance="10"
     guidetolerance="10"
     inkscape:pageopacity="0"
     inkscape:pageshadow="2"
     inkscape:window-width="640"
     inkscape:window-height="480"
     id="namedview4" /><g
     id="g10"
     inkscape:groupmode="layer"
     inkscape:label="ink_ext_XXXXXX"
     transform="matrix(1.3333333,0,0,-1.3333333,0,2666.6667)"><g
       id="g12"
       transform="scale(0.1)"><path
         d="M 20000,0 H 0 V 20000 H 20000 V 0"
         style="fill:#ffffff;fill-opacity:1;fill-rule:nonzero;stroke:none"
         id="path14" /><g
         id="g16"><g
           id="g18"
           clip-path="url(#clipPath22)"><path
             d="M 18389.8,8653.8 C 17934.5,6836.6 16418.9,5702.8 14980.2,4731.2 13039.2,3420.3 10696.4,2169.1 8383.08,1722.5 6359.6,1331.8 3247.73,1242.2 1990.24,3289.1 c -23.95,39.4 -47.23,79.1 -69.84,119.3 -771.64,1383 -368.88,2799.9 307.9,4109.2 413.73,800.4 972.05,1555.6 1107.29,2452.3 109.06,723.1 -72.63,1459.5 -313.89,2147.5 -186.49,531.9 -411.7,1059.6 -462.64,1622.9 -34.03,376.3 11.46,756.1 85.83,1126.2 768.32,3822.9 5126,4513.5 7948.21,2614.1 955.3,-642.9 1849.9,-1374.6 2756,-2088.1 882.8,-695.3 1819.4,-1305.3 2709.6,-1987.2 1481.9,-1135.3 2843.9,-2704.8 2331.1,-4751.5"
             style="fill:url(#linearGradient30);fill-opacity:1;fill-rule:nonzero;stroke:none"
             id="path32" /></g></g><path
         d="m 5911.42,4034 c -77.12,-101.5 -187.68,-261.9 -20.52,-352 95.75,-51.7 219.8,-15.5 300.84,57.1 137.16,122.8 315.51,410.9 392.33,579.5 80.09,175.7 -36.98,392.7 -232.95,284 -167.82,-93.1 -323.79,-415.9 -439.7,-568.6"
         style="fill:#ffac98;fill-opacity:1;fill-rule:nonzero;stroke:none"
         id="path34" /><path
         d="m 6270.42,3821.6 c 62.95,-353.9 182.73,-591.5 311.11,-933.9 22.75,-60.7 22.66,-129.2 -6.54,-187 -183,-362.7 -966.49,720.1 -1078.07,891.2 -24.25,37.1 -49.59,79.6 -40.23,123 8.21,38 40.83,65.1 71.45,89.2 129.64,101.6 267.07,225.7 416.74,292 2.25,1 4.32,-1.6 2.94,-3.6 -41.93,-61.8 -59.1,-144.5 -29.89,-213.5 29.79,-70.4 90.45,-107.1 164.26,-115.3 65.34,-7.3 142.36,7.1 188.23,57.9"
         style="fill:#ffffff;fill-opacity:1;fill-rule:nonzero;stroke:none"
         id="path36" /><path
         d="m 6270.42,3821.6 c 0,0 3.39,-15.7 9.76,-45.2 3,-14.8 7.41,-32.9 12.62,-54.1 4.98,-21.3 11.46,-45.5 18.68,-72.7 14.81,-54.2 34.43,-119.6 60.59,-193.3 26.05,-73.8 58.63,-155.9 94.99,-245.2 36.49,-89.2 77.18,-185.6 117.27,-288.9 2.52,-6.5 5.05,-12.9 7.58,-19.4 l 3.93,-10.1 3.54,-9.9 c 4.84,-14.3 8.47,-28.8 10.92,-43.7 4.95,-29.7 4.78,-60.8 -1.57,-91.4 -3.17,-15.3 -7.88,-30.4 -14.2,-44.9 l -2.47,-5.5 -1.25,-2.7 -0.63,-1.3 -1.05,-2 -5.38,-9.6 -2.7,-4.8 c -1,-1.7 -2.35,-3.5 -3.52,-5.3 l -7.39,-10.5 c -10.61,-12.8 -22.69,-25.1 -37.85,-33.8 -15.03,-8.8 -31.88,-14.5 -48.98,-16.8 -34.33,-4 -67.52,3.2 -97.7,14.4 -30.4,11.1 -58.78,26.1 -85.97,42.7 -54.32,33.5 -104.17,73.5 -152.15,115.9 -95.59,85.2 -183.91,180.1 -268.67,277.6 -84.29,97.9 -164.54,199.1 -240.91,300.6 -38.18,50.8 -75.25,101.7 -110.78,153 -17.75,25.6 -35.31,51.1 -51.97,77.5 -16.44,26.6 -33.24,55.8 -37.3,91.1 -1.97,17.6 0.43,36 7.23,52.6 6.77,16.4 16.95,30.4 27.95,42.2 11.02,11.8 22.92,21.9 34.67,31.3 11.62,9 23.19,18 34.69,26.9 45.46,35.6 89.74,71.5 133.8,105.2 44.09,33.8 87.74,66 132.19,94.1 22.17,14.1 44.45,27.3 66.87,39.4 11.04,6.3 22.56,11.5 33.64,17.3 5.58,2.8 11.33,5.2 16.95,7.8 l 8.43,3.8 4.2,1.9 1.05,0.5 c -0.45,-0.2 1.78,0.8 1.95,0.8 5.5,1.7 9.83,0.2 13.28,-2.6 3.24,-2.7 5.14,-6.8 4.94,-11.3 -0.1,-2.1 -0.76,-4.3 -1.72,-6 -0.98,-1.7 -0.63,-1 -1.01,-1.6 l -2.47,-3.8 -4.91,-7.5 c -2.74,-4.9 -5.76,-9.4 -8.28,-14.6 -5.34,-10 -9.86,-20.2 -13.73,-30.6 -7.86,-20.7 -12.27,-42.1 -14.07,-63 -1.68,-21 -0.34,-41.7 4.54,-60.9 2.44,-9.7 5.49,-19 9.4,-27.8 2.02,-4.7 4.06,-9.3 6.33,-13.2 2.07,-4.2 4.42,-8.3 7.03,-12.2 19.93,-32.1 49.27,-54.5 79.63,-67.3 30.43,-13.1 61.32,-17.7 88.99,-18.8 27.79,-1 52.64,2.3 73.67,7.3 21,5.3 38.07,12.7 51.04,20.2 13.12,7.3 21.92,14.9 27.8,20 5.59,5.4 8.48,8.2 8.48,8.2 0,0 -2.76,-3 -8.1,-8.6 -5.65,-5.4 -14.14,-13.4 -27.05,-21.5 -12.77,-8.1 -29.74,-16.5 -50.91,-22.9 -21.18,-6.3 -46.51,-10.5 -75.06,-10.5 -28.39,0.2 -60.49,3.7 -93.05,16.3 -32.44,12.4 -65.06,35.4 -87.89,69.4 -2.94,4.2 -5.69,8.5 -8.22,13.2 -2.8,4.6 -5,9.2 -7.15,13.7 -4.66,9.5 -8.34,19.6 -11.39,30.1 -6.09,21 -8.35,43.5 -7.32,66.4 1.05,23 5.44,46.3 13.35,69 3.9,11.3 8.53,22.6 14.06,33.6 2.55,5.5 5.93,11 8.91,16.6 l 4.74,7.7 2.38,3.8 c 0,0 0.82,1.3 0.19,0.3 -0.58,-1.1 -1.04,-2.5 -1.1,-3.9 -0.12,-3 1.09,-5.6 3.17,-7.3 2.31,-1.8 5,-2.9 9.04,-1.7 -0.56,-0.2 1.01,0.4 -0.13,-0.1 l -1.01,-0.5 -4.02,-1.9 -8.07,-3.9 c -5.38,-2.7 -10.87,-5.2 -16.22,-8 -10.64,-5.9 -21.65,-11.2 -32.26,-17.6 -21.52,-12.3 -42.93,-25.7 -64.28,-40.1 -42.82,-28.6 -85.38,-60.9 -128.43,-95.2 -43.09,-34.3 -86.47,-70.7 -131.76,-107.5 -22.41,-18.6 -46.55,-35.8 -64.59,-55.6 -9.06,-9.9 -16.42,-20.6 -20.95,-31.9 -4.38,-11.2 -5.97,-23.5 -4.42,-35.8 2.93,-25.1 16.84,-50.7 32.84,-75.5 16.29,-25.3 34.04,-50.4 51.88,-75.6 35.9,-50.3 73.14,-100.7 111.15,-151.1 76.27,-100.7 156.47,-200.9 240.32,-297.8 83.65,-96.9 170.81,-191.1 264.08,-274.9 46.83,-41.4 95,-80.8 146.07,-113.1 25.54,-16 51.9,-30.2 78.92,-40.5 26.92,-10.4 54.9,-16.1 80.8,-13.4 12.84,1.7 24.86,5.7 35.79,11.8 10.95,6.1 20.15,15.3 28.53,25.1 l 5.46,7.6 c 0.92,1.3 1.86,2.3 2.79,3.8 l 2.74,4.8 5.49,9.6 4.09,8.4 c 5.58,12.3 9.85,25.1 12.81,38.2 5.95,26.2 6.67,53.4 2.76,79.7 -1.92,13.2 -4.95,26.2 -8.82,38.5 l -3.36,9.9 -3.5,9.5 c -2.41,6.5 -4.81,13 -7.21,19.4 -38.33,103.5 -76.47,200.8 -110.72,291.2 -34.5,90.2 -64.25,173.8 -87.77,248.8 -23.69,74.9 -41.1,141.3 -54.05,196.1 -3.13,13.8 -6.09,26.8 -8.88,39 -2.77,12.3 -4.75,23.9 -6.93,34.6 -4.23,21.5 -7.8,39.8 -10.1,54.7 -4.99,29.7 -7.64,45.6 -7.64,45.6"
         style="fill:#52565b;fill-opacity:1;fill-rule:nonzero;stroke:none"
         id="path38" /><path
         d="m 6273.4,3291.6 c 1.05,3.4 0.62,6.3 0.62,9.7 -0.06,3.2 -0.3,6.4 -0.55,9.7 -0.16,6.4 -0.86,12.9 -1.02,19.4 -0.54,12.9 -0.58,25.8 -0.08,38.7 0.42,12.9 1.69,25.7 3.43,38.8 1.09,6.5 2.01,13.1 3.7,19.9 0.81,3.4 1.71,6.9 2.89,10.7 0.63,2 1.36,3.9 2.42,6.3 1.13,2.3 2.12,5.4 6.76,10.4 l -5.56,-15.8 c -0.45,5.2 -1.01,10.4 -1.91,14.1 -0.41,1.8 -1,3.2 -1.01,3.5 -0.11,0.4 1.33,-0.9 3.51,-1.2 2.07,-0.1 2.28,0.6 1.12,0.4 -1.13,-0.1 -3.05,-0.8 -5.07,-1.9 -4.08,-2.1 -8.82,-5.2 -13.41,-8.6 -9.43,-6.7 -18.9,-14.7 -29.39,-21.7 -5.17,-3.6 -10.47,-7.1 -16.26,-10.1 -5.65,-2.9 -11.93,-5.6 -18.34,-6 5.1,3.7 8.74,8.4 12.45,13.1 3.56,4.9 7.02,9.8 10.48,14.7 6.75,10.2 13.77,20.2 22.01,30.2 4.26,4.9 8.64,9.9 14.6,14.6 3.01,2.4 6.37,4.8 10.89,6.9 4.48,2 10.92,3.9 18.98,2.4 8.16,-1.7 14.54,-7.2 17.91,-11.7 3.48,-4.7 5.31,-9 6.83,-12.9 2.93,-7.8 4.19,-14.7 5.17,-21.6 l -5.57,-15.8 c 2.57,2.5 2.08,2.7 2.03,2 l -0.76,-2.8 c -0.65,-2.3 -1.29,-5 -1.87,-7.9 l -3.6,-17.9 c -2.59,-12.2 -5.1,-24.8 -8.48,-37.2 -3.31,-12.5 -7.12,-25 -11.99,-37.4 -2.33,-6.2 -5.37,-12.3 -8.32,-18.4 -1.64,-3 -3.43,-6 -5.32,-9 -1.94,-2.7 -4.26,-6.1 -7.29,-7.6"
         style="fill:#52565b;fill-opacity:1;fill-rule:nonzero;stroke:none"
         id="path40" /><path
         d="m 6411.98,2701.6 c 0,0 -3.81,3.4 -10.94,9.7 -7.1,6.4 -17.72,15.5 -30.82,27.6 -13.27,11.8 -28.98,26.7 -46.71,44.1 -8.91,8.7 -18.38,17.9 -28.38,27.7 -9.7,10 -19.9,20.5 -30.54,31.4 -21.45,21.8 -43.96,46.1 -67.47,72.1 -23.57,25.9 -48.03,53.5 -72.79,82.6 -24.5,29.3 -50.38,59.1 -75.23,90.6 -25.27,31.1 -50.27,63.2 -75.52,95.1 -24.52,32.5 -49.04,64.9 -73.17,96.9 -24.24,31.8 -46.89,64.1 -69.37,94.8 -22.44,30.8 -43.51,61.1 -63.57,89.6 -20.17,28.5 -38.83,55.8 -56.04,80.9 -34.54,50.3 -62.68,92.6 -82.34,122.3 -19.67,29.7 -30.55,46.9 -30.55,46.9 0,0 13.65,-15.1 36.9,-42.1 11.63,-13.5 25.71,-29.9 41.5,-49 15.92,-19 33.8,-40.5 52.89,-64.3 19.26,-23.7 40.03,-49.3 61.58,-76.8 21.67,-27.4 44.63,-56.2 67.82,-86.3 23.26,-30.2 47.77,-60.9 71.95,-92.7 24.42,-31.6 49.22,-63.7 74.03,-95.7 24.78,-32.1 49.32,-64.4 74.1,-95.6 24.57,-31.4 48.76,-62.4 72.17,-92.3 23.67,-29.7 46.55,-58.4 68.26,-85.6 22.07,-26.9 42.43,-52.8 61.92,-76.1 19.31,-23.5 36.96,-45.1 52.95,-63.9 15.93,-18.9 29.53,-35.7 41.29,-49.1 11.67,-13.4 20.51,-24.3 26.68,-31.6 6.13,-7.3 9.4,-11.2 9.4,-11.2"
         style="fill:#52565b;fill-opacity:1;fill-rule:nonzero;stroke:none"
         id="path42" /><path
         d="m 3459.53,3110.3 c -47.2,-118.5 -110.91,-302.6 74.25,-344.8 106.06,-24.2 215.94,43.8 274.65,135.4 99.37,155 194.31,480.3 223.31,663.2 30.23,190.8 -140.52,368.6 -300.35,211.5 -136.86,-134.5 -200.93,-487.3 -271.86,-665.3"
         style="fill:#ffac98;fill-opacity:1;fill-rule:nonzero;stroke:none"
         id="path44" /><path
         d="m 3607.99,2983.9 c 48.19,-34.6 108.15,-46.5 172.14,-25.8 52.11,16.9 94.36,47.8 133.52,162.1 188.13,-305.6 386.8,-494 631.33,-762.7 43.86,-48.2 69.37,-112.2 63.63,-177.1 -35.89,-406.1 -1163.29,314.6 -1329.95,432.8 -36.19,25.7 -75.35,55.9 -82.56,99.7 -6.32,38.4 14.09,75.6 33.76,109.1 83.04,141.7 165.61,310.8 271.35,425.3 1.97,2.1 5.43,0.2 5,-2.7 -12.43,-83.4 14.04,-150.9 36.48,-188.2 17.73,-29.5 39.88,-54.2 65.3,-72.5"
         style="fill:#ffffff;fill-opacity:1;fill-rule:nonzero;stroke:none"
         id="path46" /><path
         d="m 3913.65,3120.2 c 0,0 9.04,-13.6 25.98,-39 8.32,-12.9 19.2,-28.3 31.93,-46.4 12.55,-18.3 27.65,-38.8 44.42,-61.8 33.94,-45.8 76.41,-100.5 127.96,-160.8 51.48,-60.4 111.99,-126.4 178.9,-197.7 67,-71.2 140.82,-147.3 217.19,-229.6 9.48,-10.3 19.38,-20.3 28.89,-32.2 9.6,-12 17.99,-24.4 25.5,-37.8 14.85,-26.7 25.33,-56.5 29.56,-88 2.1,-15.6 2.64,-31.7 1.39,-47.7 -1.29,-9.3 -1.47,-14.8 -3.42,-23.6 -1.85,-8.4 -3.84,-16.9 -7.04,-24.7 -10.74,-32.2 -37.95,-60.6 -69.62,-74 -15.75,-6.9 -32.23,-11.7 -48.66,-14 -16.47,-2.7 -32.89,-3.3 -49.23,-3.3 -32.62,0.5 -64.74,4.8 -96.4,11 -63.3,12.5 -125.04,32.1 -185.74,55 -121.46,45.8 -239.73,103 -355.66,164 -115.67,61.5 -228.75,127.5 -338.29,195.3 -54.78,33.9 -108.55,68.4 -160.93,104 -26.15,18 -52.19,35.1 -77.48,56.4 -12.46,10.9 -24.6,22.8 -34.57,37.4 -10.06,14.5 -17.55,31.5 -19.99,50.3 -0.2,2 -0.48,3.6 -0.63,5.9 l -0.3,7.4 c 0.09,4.7 0.18,9.1 0.78,13.5 0.99,8.9 2.86,17.4 5.42,25.5 5.02,16.2 12.16,30.8 19.63,44.5 7.63,13.8 15.31,26.4 22.76,39.2 7.46,12.8 14.89,25.6 22.27,38.2 29.35,50.9 57.63,101.2 86.64,149.5 28.94,48.3 58.43,94.8 90.26,137.7 15.76,21.5 32.39,41.9 49.34,61.5 4.35,4.8 8.68,9.5 12.99,14.3 l 3.23,3.5 2.34,2.5 c -0.58,-0.5 1.87,1.8 4.29,2.8 2,0.9 4.24,1.3 6.37,1.2 8.37,-0.3 14.58,-7.3 14.52,-15.2 -0.12,-2.4 -0.18,-2 -0.22,-2.5 l -0.16,-1.2 -0.31,-2.3 c -1.86,-12.8 -2.75,-23.6 -2.97,-35.6 -1.66,-94.2 44.74,-180 109.67,-221.3 31.95,-20.7 68.56,-29.6 101.82,-28.4 16.7,0.5 32.68,3.2 47.54,7.4 14.96,4.1 28.72,9.4 40.86,16.2 24.3,13.7 41.42,32.9 53.84,50.9 12.42,18.1 21.07,34.9 27.42,48.7 6.37,13.9 10.81,24.7 13.59,32.1 2.85,7.4 4.32,11.2 4.32,11.2 0,0 -1.29,-3.9 -3.8,-11.4 -2.44,-7.5 -6.37,-18.5 -12.12,-32.7 -5.74,-14.3 -13.63,-31.5 -25.43,-50.6 -11.7,-18.9 -28.7,-39.6 -53.9,-54.9 -12.55,-7.6 -26.86,-13.7 -42.11,-18.5 -15.34,-4.8 -32.02,-8.3 -49.69,-9.4 -35.27,-2.5 -74.72,5.4 -110.38,26.9 -70.99,41.8 -124.12,131.8 -124.6,233.9 -0.15,12.5 0.74,26.4 2.22,38.4 l 0.26,2.3 0.12,1.2 c 0.06,0.2 0.1,1.4 0.02,-0.3 0.03,-4.6 3.48,-8.7 8.67,-9 1.35,0 2.79,0.3 4.08,0.8 1.69,0.7 3.52,2.5 2.39,1.5 1.19,1.1 -0.11,-0.2 -0.04,-0.2 l -0.75,-0.9 -3.04,-3.5 c -4.05,-4.7 -8.12,-9.4 -12.21,-14.1 -15.94,-19.3 -31.6,-39.6 -46.48,-61 -30.06,-42.6 -58.46,-88.7 -86.2,-137.1 -27.86,-48.3 -55.15,-99 -83.7,-150.6 -14.38,-25.6 -28.92,-51.4 -43.6,-77.5 -13.55,-25.3 -23.79,-51.4 -20.05,-76.2 3.22,-23.7 20.8,-45.9 43.08,-64.4 22.42,-18.5 48.85,-35.7 74.72,-53.1 52.28,-34.4 106.02,-68.4 160.5,-102 109.11,-67 221.82,-132.2 336.71,-192.9 114.72,-60.9 231.69,-117.9 350.55,-163.2 59.4,-22.4 119.36,-42.1 179.46,-54.7 30.02,-6.2 60.12,-10.5 89.63,-11.3 29.34,-0.6 58.53,2.6 83.05,13.3 12.45,5 22.95,12.7 31.8,21.7 4.65,4.3 8.07,9.7 11.8,14.9 2.89,5.7 6.43,11.1 8.37,17.4 2.64,6.2 4.03,12.3 5.56,18.4 1.58,5.7 2.35,15.3 3.34,20.7 1.3,13.6 1.09,27.3 -0.47,40.8 -3.15,27 -11.75,53.2 -24.44,77 -6.33,11.8 -13.85,23.3 -21.81,33.6 -7.97,10.5 -17.74,20.8 -27.09,31.3 -75.25,83.1 -146.4,161.7 -212.07,234.3 -65.54,72.8 -123.95,141.2 -173.49,203.7 -49.67,62.3 -90.41,118.6 -122.84,165.7 -16.08,23.6 -30.41,44.7 -42.07,63.7 -11.92,18.7 -22.07,34.6 -29.79,47.8 -15.75,26.2 -24.16,40.2 -24.16,40.2"
         style="fill:#52565b;fill-opacity:1;fill-rule:nonzero;stroke:none"
         id="path48" /><path
         d="m 4111.18,2618.7 c -0.29,3.6 -1.76,6.2 -2.99,9.3 -1.24,3 -2.65,5.9 -4.07,8.8 -2.51,5.9 -5.55,11.7 -8.06,17.7 -5.24,11.8 -10,23.8 -14.28,35.9 -4.35,12.2 -7.89,24.6 -11.06,37.4 -1.38,6.5 -2.95,13 -3.87,19.9 -0.49,3.5 -0.93,7.1 -1.23,11 -0.14,2.1 -0.17,4.2 -0.07,6.8 0.22,2.5 0.02,5.7 2.49,12.1 l -1.04,-12.4 c -0.34,1.9 -0.82,3.5 -1.02,4.2 -0.01,0.8 -0.4,0.1 3.44,-2.1 1.87,-1 4.69,-1.4 6.35,-1.2 1.71,0.3 2.39,0.7 2.54,0.9 0.14,0.4 -1.23,-0.2 -2.63,-1.2 -2.88,-2.1 -6.46,-5.5 -9.91,-9 -3.42,-3.5 -7.07,-7.3 -10.61,-11.2 -7.28,-7.8 -14.53,-16 -22.78,-23.6 -4.02,-3.8 -8.15,-7.6 -12.72,-11.1 -4.45,-3.5 -9.29,-6.8 -14.56,-9 5.68,9.7 9.28,19.7 13.71,29.6 4.06,10.1 8.57,19.9 13.53,29.9 2.6,4.9 5.17,9.9 8.34,14.8 3.16,5 6.44,10.1 11.47,15.3 2.56,2.6 5.47,5.4 10.44,8.1 2.57,1.3 5.84,2.7 10.23,3.1 4.34,0.6 9.91,-0.4 14.15,-2.6 8.63,-4.9 11.25,-10.5 13.54,-14.4 2.07,-4.2 3.17,-7.8 4.15,-11.1 l -1.04,-12.4 c 1.45,3.3 0.93,3.3 1.14,2.6 l 0.31,-2.8 c 0.26,-2.5 0.67,-5.3 1.17,-8.1 l 3.22,-18 c 2.08,-12.3 4.35,-24.9 5.77,-37.7 1.5,-12.9 2.55,-25.9 2.57,-39.2 0.1,-6.6 -0.48,-13.4 -0.99,-20.2 -0.42,-3.4 -0.98,-6.8 -1.66,-10.3 -0.82,-3.2 -1.72,-7.2 -3.97,-9.8"
         style="fill:#52565b;fill-opacity:1;fill-rule:nonzero;stroke:none"
         id="path50" /><path
         d="m 4434.6,2121.4 c 0,0 -4.77,2.3 -13.71,6.5 -8.91,4.2 -22.12,10.2 -38.66,18.3 -16.6,8 -36.71,17.8 -59.55,29.6 -22.93,11.5 -48.76,24.7 -76.54,39.7 -27.96,14.7 -58.07,31 -89.61,48.8 -31.65,17.5 -64.85,36.4 -98.88,56.4 -33.89,20.3 -69.3,40.6 -104.41,62.7 -35.33,21.7 -70.86,44.3 -106.51,66.7 -35.21,23.2 -70.48,46.2 -104.86,69.4 -34.67,22.7 -67.76,46.7 -100.25,69.1 -32.29,22.7 -63.25,45.1 -92.3,66.7 -29.23,21.3 -56.51,42 -81.47,61.4 -25.18,19 -47.83,37.1 -67.84,53.2 -20.14,15.9 -37.41,30.1 -51.57,41.9 -28.36,23.6 -44.27,37.4 -44.27,37.4 0,0 17.99,-11 48.97,-30.9 30.89,-20 75.03,-48.6 127.99,-82.9 52.76,-34.4 114.31,-74.6 180.26,-117.7 33.01,-21.4 67.12,-43.5 101.78,-66 34.5,-22.7 69.93,-45.2 105.21,-67.9 35.26,-22.8 70.4,-45.7 105.36,-67.7 34.81,-22.3 69.07,-44.2 102.22,-65.4 66.47,-42.2 128.51,-81.6 181.69,-115.4 53.15,-34 97.44,-62.3 128.45,-82.2 15.56,-9.8 27.56,-18 35.85,-23.4 8.25,-5.4 12.65,-8.3 12.65,-8.3"
         style="fill:#52565b;fill-opacity:1;fill-rule:nonzero;stroke:none"
         id="path52" /><path
         d="m 8619.54,16189.1 c 193.88,344.5 379.4,690.6 578.78,1034 38.94,67.1 78.71,134.3 118.95,201.1 12.79,21.3 27.27,51.4 48.05,63.2 29.29,16.7 91.76,9.9 118.5,13.1 55.49,6.7 102.54,-3 152.7,-8 46.86,-4.7 250.08,46.9 235.24,-22.3 -10.35,-48.4 -89.08,-147 -119.61,-196 -41.92,-67.3 -88.94,-133.4 -126.54,-201.7 -197.28,-358.2 -360.34,-641 -595.6,-1024.7 -27.03,-44.1 -59.83,-128.1 -101.99,-133.9 -50.71,-7 -93.52,8.8 -140.42,10.8 -80.9,3.4 -173.72,-15.1 -244.62,8.5 -45.31,15.1 -54.56,23 -20.76,85.3 29.96,55.3 63.26,109.9 94.18,165 1.05,1.9 2.09,3.8 3.14,5.6"
         style="fill:#ffffff;fill-opacity:1;fill-rule:nonzero;stroke:none"
         id="path54" /><path
         d="m 8740.03,16291.8 c 154.48,273.5 302.53,548.1 461.23,821 31,53.3 62.64,106.8 94.63,159.9 10.17,16.9 21.77,40.8 37.96,50.6 22.82,13.9 70.9,10.7 91.56,14 42.88,7 79.02,1 117.62,-1.3 36.06,-2.2 193.5,44.4 181.05,-9.8 -8.68,-37.9 -70.81,-116.9 -95.06,-156 -33.29,-53.5 -70.51,-106.3 -100.49,-160.5 -157.29,-284.4 -323.75,-569.1 -510.7,-874.5 -21.48,-35.1 -11.35,-41.3 -43.94,-47.1 -39.2,-7.1 -71.98,3.8 -108.11,3.8 -62.33,0.1 -134.16,-17.3 -188.49,-1.2 -34.72,10.2 -41.73,16 -14.77,65.5 23.9,43.9 50.37,87.4 75.01,131.1 0.83,1.5 1.67,3 2.5,4.5"
         style="fill:#f0f4ff;fill-opacity:1;fill-rule:nonzero;stroke:none"
         id="path56" /><path
         d="m 9019.13,16908.2 c 0,0 17.8,34.2 48.96,94.1 15.79,29.8 34.97,66 56.97,107.5 22.3,41.4 46.63,88.2 75.11,138.9 28.34,50.3 59.05,104.9 92.02,162.3 8.17,14.4 16.46,29.1 24.85,43.9 9.08,15 18.25,31.7 37.33,45 l 1.83,1.2 0.92,0.6 1.62,0.8 2.91,1.5 c 1.61,0.9 4.57,2.1 7.39,3.2 2.94,1.1 5.46,1.9 7.85,2.5 2.48,0.7 4.94,1.4 7.34,1.9 9.73,2.1 19.2,3.2 28.52,3.9 18.62,1.4 37.01,1.2 54.43,1.7 4.28,0.1 8.61,0.3 12.3,0.7 l 13.43,1.5 c 9.95,0.8 19.47,1.4 29.12,1.4 19.26,0.3 38.46,-1.1 57.29,-2.9 18.46,-2 37.02,-4 55.67,-6 14.39,-1.6 33.8,1.3 52.16,3.4 37.44,4.5 75.67,10.2 116.11,10.9 10.18,0.1 20.45,-0.1 31.31,-1.4 10.84,-1.5 22.2,-3.3 34.99,-10.2 6.34,-3.9 13.34,-9 17.89,-17.8 4.42,-8.3 5.67,-18.2 4.5,-25.5 l -0.36,-2.9 -0.2,-1.4 c 0.17,0.6 -0.52,-2.4 -0.5,-2.4 l -0.97,-3.5 c -0.73,-2.4 -1.13,-4.4 -2.11,-7.1 -2.05,-5.5 -4.23,-11.7 -6.44,-16.1 -8.83,-19.1 -19.19,-36 -29.76,-52.7 -10.61,-16.6 -21.63,-32.6 -32.7,-48.4 -11.01,-15.7 -22,-31.4 -32.96,-47 -5.38,-7.7 -10.66,-15.4 -15.53,-23.1 l -15.34,-24 c -41.2,-64.5 -84.38,-124.6 -118.69,-187.1 -35.3,-63 -70.38,-123.5 -103.73,-180.8 -33.22,-57.3 -65.31,-111.1 -95.12,-160.6 -59.46,-99.2 -110.54,-180.9 -146.56,-238 -18.18,-28.4 -32.46,-50.7 -42.19,-66 -9.79,-15.1 -15.01,-23.3 -15.01,-23.3 0,0 18.3,34 50.33,93.3 32.23,59.3 78.26,143.9 133.5,245.4 55,101.6 119.18,220.1 187.94,347 34.35,64.7 76.49,127.5 116.95,190.8 l 15.15,24.1 c 5.31,8.4 10.74,16.5 16.2,24.4 10.89,15.7 21.82,31.5 32.76,47.3 21.41,31.2 43.3,63.2 58.35,95.2 2.15,4.3 2.95,7.2 4.54,10.7 0.72,1.7 1.34,4.5 2.01,6.6 l 0.99,3.5 c 0.18,0.6 -0.48,-1.8 -0.2,-0.6 l 0.02,0.3 0.08,0.8 c 0.45,2.2 -0.13,2.2 0.03,2.4 0.22,0.1 -0.81,0.9 -2.48,2.1 -4.18,2.4 -12.09,4.4 -20.21,5.4 -8.22,1.1 -17.2,1.3 -26.19,1.3 -36.37,-0.3 -74,-5.6 -111.83,-10 -9.52,-1 -19.04,-2.1 -28.9,-3 -4.94,-0.3 -10,-0.6 -15.23,-0.8 -2.85,0 -6.48,-0.1 -8.73,0.1 l -4.25,0.3 -3.57,0.4 c -18.67,2.4 -37.25,4.7 -55.72,7 -18.1,2.2 -35.8,3.7 -53.22,3.8 -8.7,0.1 -17.44,-0.3 -25.63,-0.8 l -13.69,-1.2 c -5.33,-0.5 -10.06,-0.6 -14.8,-0.6 -18.69,-0.2 -36.15,0.3 -52.93,-0.7 -8.37,-0.5 -16.51,-1.3 -23.98,-2.7 -1.93,-0.3 -3.7,-0.8 -5.45,-1.2 -1.85,-0.5 -3.55,-0.9 -4.67,-1.3 -1.29,-0.5 -2.48,-0.7 -4.71,-1.8 l -2.96,-1.4 c 0.16,0.1 -1.39,-0.7 0.16,0.1 l -0.45,-0.3 -0.92,-0.5 c -10.16,-6.2 -19.74,-19.7 -28.18,-33.5 -8.81,-14.5 -17.51,-28.8 -26.1,-42.9 -34.43,-56.6 -67.46,-109.8 -97.94,-158.9 -29.89,-49.4 -57.28,-94.6 -81.57,-134.8 -24.44,-40.1 -45.76,-75.1 -63.31,-103.8 -35.54,-57.4 -55.84,-90.2 -55.84,-90.2"
         style="fill:#52565b;fill-opacity:1;fill-rule:nonzero;stroke:none"
         id="path58" /><path
         d="m 9078.18,16132.8 c 0,0 -2.94,-5.8 -8.45,-16.7 -5.52,-10.8 -13.66,-26.7 -24.4,-46.7 -10.77,-20 -24.05,-44.1 -40.5,-71.2 -8.26,-13.5 -17.31,-27.8 -27.66,-42.3 -5.19,-7.3 -10.74,-14.6 -16.9,-21.7 -6.25,-7.1 -12.82,-14.4 -21.7,-20.1 -40.24,-14.6 -83.79,-4.5 -127.24,-1.1 -43.03,3.6 -89.38,-2.6 -138.29,-5.6 -24.5,-1.5 -49.77,-2.6 -75.93,-1.1 -13.08,1 -26.37,2.1 -39.72,5.3 -6.71,1.1 -13.27,3.4 -20.06,5.1 -5.97,1.9 -12.6,4.1 -19.22,6.7 -6.69,2.9 -14.09,5.9 -22.05,13.1 -3.9,3.6 -7.71,8.8 -9.85,14.6 -2.2,5.8 -2.72,11.7 -2.53,16.6 0.48,9.9 2.93,17.4 5.38,24.4 2.53,6.9 5.36,13.3 8.29,19.5 2.93,6.2 5.97,12.1 9.1,18 l 9.33,17.2 19.09,34.1 c 25.66,45 51.32,90 76.57,134.3 25.15,44.5 49.34,88.5 73.75,130.6 24.37,42 47.48,83 70.21,121.3 22.75,38.4 43.79,74.9 64.05,108.1 20.13,33.3 38.4,64 55.13,90.8 16.55,27 31.09,50.4 43.28,69.6 12.03,19.3 21.78,34.2 28.39,44.5 6.6,10.2 10.13,15.7 10.13,15.7 0,0 -2.77,-5.9 -7.97,-16.9 -5.19,-11.1 -12.75,-27.3 -22.75,-47.7 -9.83,-20.5 -22.05,-45.2 -36.19,-73.5 -13.95,-28.4 -30.3,-60.1 -47.94,-94.8 -17.5,-34.8 -37.37,-72 -57.89,-111.6 -20.55,-39.6 -43.08,-80.8 -65.91,-123.7 -22.8,-43 -47.39,-86.8 -71.81,-131.7 -24.2,-45.1 -51.5,-89.7 -77.3,-134.3 l -19.17,-33.5 -9.38,-16.9 c -3.04,-5.5 -6.11,-10.9 -8.86,-16.3 -2.77,-5.4 -5.34,-10.8 -7.38,-15.9 -2.06,-5 -3.43,-10 -3.64,-13 0.08,-3.2 -0.35,-1.9 0.8,-3.6 1.39,-1.6 5.78,-4.2 10.77,-6.3 42.99,-19 92.05,-20.6 140.19,-20 24.08,0.4 48.07,1 71.77,0.8 23.71,-0.4 47.25,-0.9 69.98,-4.9 22.47,-3.9 43.36,-9.1 63.73,-12 10.18,-1.4 20.2,-2.6 30.08,-2.8 4.96,-0.1 9.63,-0.2 14.68,0.2 2.4,0.2 5.25,0.1 6.8,0.6 1.89,0.5 3.84,1.4 5.75,2.5 7.65,4.6 14.34,11.4 20.48,18.1 6.15,6.8 11.75,13.9 17.1,20.9 10.63,14 20.06,27.9 28.67,41.1 17.18,26.5 31.15,50.2 42.5,69.8 11.31,19.7 19.91,35.3 25.75,46 5.83,10.7 8.94,16.4 8.94,16.4"
         style="fill:#52565b;fill-opacity:1;fill-rule:nonzero;stroke:none"
         id="path60" /><path
         d="m 5862.09,15035.9 c 73.8,35.1 144.58,72.3 207.18,115.4 358.29,246.6 730.6,561.5 993.58,913 199.93,267.1 432.74,533 732.69,689.9 242.34,126.8 517.59,185.4 790.19,185.5 128.79,0.1 258.53,-3.1 385.99,-21.8 114.48,-16.7 138.39,-64.6 14.02,-111.6 -87.81,-33.3 -179.14,-46.7 -265.86,-83.9 -108.55,-46.4 -165.06,-20.3 -276.21,16 -77.73,25.3 -106.01,13.3 -175.74,-15.7 -151.07,-63 -270.8,-132.7 -337.06,-292.2 -84.01,-202.1 -88.62,-454.5 -134.96,-677.1 -65.66,-315.4 -151.27,-797.2 -313.11,-1065.7 -334.09,-554.3 -993.94,-1145.4 -1688.56,-971.7 -415.43,103.9 -466.67,423.1 -513.03,785.3 -26.61,207.9 -76.8,154.6 68.58,268.4 140.63,110.1 335.17,182 512.3,266.2"
         style="fill:#f7a28e;fill-opacity:1;fill-rule:nonzero;stroke:none"
         id="path62" /><path
         d="m 8289.04,9739.6 c 478.89,-634.7 768.17,-1392.2 608.39,-2128 C 8778.65,7064.7 8434.1,6598.3 8098.28,6150.5 7985.64,6000.3 6588.34,4153.3 6637.59,4129.1 c -216.15,106 -432.31,211.9 -648.47,317.9 217.45,558 434.9,1116 652.35,1674 186.78,479.4 564.13,1091.5 623.68,1599.7 52.74,450.1 -558.36,632.3 -915.86,893.2 -391.6,285.8 -760.99,606.7 -1054.74,994.9 -181.93,240.4 -337.42,518 -347.43,819.3 -17.09,514.4 456.1,817.5 927.05,837.2 315.27,13.1 622.99,-99.2 904.23,-242.3 533.15,-271.3 1093.74,-730.8 1510.64,-1283.4"
         style="fill:#233fe1;fill-opacity:1;fill-rule:nonzero;stroke:none"
         id="path64" /><path
         d="m 4785.32,10721.3 c -119.43,-177.9 -214.07,-413.8 -277.76,-577.1 -331.17,-849.1 -341.98,-1790.4 -402.57,-2687.6 -48.43,-717.2 -130.2,-1432.1 -244.84,-2141.7 -57.31,-354.9 -122.84,-708.3 -196.53,-1060.1 -21.73,-103.7 -44.3,-207.3 -67.48,-310.7 -33.07,-147.5 -52.07,-298.3 -89.57,-444.3 -7.15,-27.8 -13.74,-55.6 -19.37,-83.7 -2.36,-11.8 -4.12,-24.1 -1.37,-35.6 1.15,-4.8 -1.01,-4.4 3.65,-7.5 3.35,-2.2 10.73,-1 14.66,-1.4 14.71,-1.5 33.88,-3.7 47.81,-8.6 133,-47 276.48,-89 402.6,-152.1 11.47,-5.8 24.89,-9.1 37.06,-13.1 7.02,-2.3 23.01,-11.6 30.77,-9.4 2.09,24.7 14.49,47.9 24.93,69.7 9.4,19.6 15.83,40.8 25.63,60 119.51,235 233.03,472.5 353.71,706.8 148.66,288.5 297.32,577.1 445.98,865.7 148.66,288.6 297.32,577.2 445.98,865.8 829.47,1610.2 1238.21,3391.2 1412.7,5185 52.32,537.8 -274.14,478.2 -741.64,615.9 -551.51,162.5 -887.21,-363.6 -1204.35,-836"
         style="fill:#395fff;fill-opacity:1;fill-rule:nonzero;stroke:none"
         id="path66" /><path
         d="m 5087.94,15635 c -1.05,12.2 -2.32,24.5 -3.8,36.7 -6.17,50.7 -25.26,100.7 -12.58,151 11.89,47.1 33.39,92 70.55,124.4 114.59,99.7 309.81,245.5 385.71,120.2 46.41,-76.7 69.25,-354.2 64.81,-443.7 -2.49,-50.1 -35.98,-104.5 -73.27,-138.1 -16.78,-15.1 -37.91,-24.6 -55.33,-38.9 -44.42,-36.6 -58.27,-100.6 -49.22,-157.4 13.93,-87.4 66.55,-176.1 124.41,-241.4 60,-67.7 136.95,-148.2 108.17,-233.9 -16.67,-49.7 -64.93,-81 -111.7,-104.6 -118.5,-59.8 -269.29,-79.8 -399.28,-94.7 -70.38,-8.2 -340.15,-50.5 -348.08,50.9 -1.85,23.7 9.86,46 21.23,66.9 109.33,200.6 229.43,399.2 267.33,628.2 14.98,90.6 18.94,183 11.05,274.4"
         style="fill:#ffac98;fill-opacity:1;fill-rule:nonzero;stroke:none"
         id="path68" /><path
         d="m 4541.24,14311.5 c 65.19,121.9 138.83,239.4 219.15,350.6 10.1,14 90.14,147 98.38,145.3 44.08,-8.8 76.69,-35 122.52,-43.5 77.28,-14.4 156.79,-16.9 234.88,-7.9 157.63,18.2 310.84,84.1 424.32,195.4 56.93,55.9 625.89,-645.9 672.67,-715.4 188.63,-279.9 331.49,-590.4 420,-915.5 197.08,-723.9 84.06,-1542.6 10.42,-2277.2 -414.46,-45 -827.08,-76 -1236.5,-154.2 -202.04,-38.5 -402.05,-85 -603.19,-127.6 -127.84,-27 -140.93,-63.1 -184.49,42 -26.8,64.6 -86.4,181.6 -119.38,259.2 -190.19,447.7 -313.41,923.2 -362.51,1406.6 -49.43,486.6 -35.46,979.8 128.23,1445.1 47.79,135.9 106.97,269 175.5,397.1"
         style="fill:#ffffff;fill-opacity:1;fill-rule:nonzero;stroke:none"
         id="path70" /><path
         d="m 4792.91,10740 c 0,0 -4.26,0.2 -12.21,2.4 -7.86,2.3 -19.22,7.8 -30.76,19 -11.54,11.1 -23.67,26.8 -35.88,46.4 -12.39,19.4 -25.4,42.7 -38.67,69.3 -26.88,53 -54.21,119.7 -87.34,195.2 -33.32,75.3 -68.94,161.8 -104.26,257.2 -35.57,95.3 -70.62,200 -103.17,312 -32.64,112 -63.26,231.4 -89.05,356.1 -25.79,124.7 -48.38,254.5 -64.09,387.4 -15.95,132.8 -27.16,268.2 -32.4,404.1 -4.63,135.9 -2.79,272.2 6.94,405.8 9.46,133.7 28.4,264.6 54.6,389.6 26.09,125.1 61.18,243.9 101.7,353.6 40.44,109.8 86.19,210.6 132.76,301.2 46.39,90.8 93.97,171.2 138.66,240.8 44.63,69.6 86.23,128.5 121.59,176.1 9.1,11.7 16.19,23.4 23.57,34.5 7.27,11 14.08,21.3 20.42,30.9 12.74,19.2 23.71,35.4 32.82,48.4 17.99,26 29.46,39.2 30.63,37.4 -1.21,1.7 -12.04,-11.8 -28.83,-38.6 -8.5,-13.4 -18.72,-30.1 -30.58,-49.8 -12.12,-19.6 -24.68,-42.6 -41.7,-67.4 -33.67,-48.6 -73.16,-108.6 -115.25,-179.3 -42.06,-70.8 -86.61,-152.2 -130.77,-243.2 -43.94,-91.1 -86.88,-192 -125.2,-301.1 -38.21,-109.2 -70.5,-226.9 -95.32,-350.6 -24.87,-123.6 -41.24,-253.1 -50.57,-385.2 -9.19,-132.2 -10.48,-267 -5.52,-401.6 4.72,-134.6 15.41,-269.3 30.76,-401.1 15.42,-131.8 35.62,-260.9 60.2,-384.9 24.67,-124 52.68,-243.1 83.25,-355 30.72,-111.8 63.01,-216.7 96.07,-312.4 33.26,-95.8 65.57,-182.6 96.41,-259.3 30.66,-76.6 55.68,-144 80.61,-197.5 25.06,-53.3 47.19,-94.7 69.11,-117.5 10.85,-11.5 21.72,-17.4 29.42,-20 7.78,-2.5 12.05,-2.9 12.05,-2.9"
         style="fill:#52565b;fill-opacity:1;fill-rule:nonzero;stroke:none"
         id="path72" /><path
         d="m 4789.01,13649.1 c 15.65,-324.3 221.54,-619.3 491.02,-800.3 269.48,-181 595.73,-260.1 918.97,-290 639.24,-59.1 1315.93,75.5 1817.66,476 358.16,285.9 608.05,690 771.99,1118 119.65,312.3 196.47,639 257.25,967.3 27.56,148.9 40.14,318.7 92.83,460.4 47.88,128.8 148.18,229.9 192.03,361.4 47.72,143.1 45.18,277.2 -34.48,403.5 -108.86,172.5 -227.2,178 -244.32,-31 -12.65,-154.4 20.64,-322.4 -7.65,-474.3 -43.16,-231.7 -153.71,-444.6 -248.15,-658.3 -148.35,-335.6 -391,-669.7 -673.55,-903.6 -314,-259.9 -739.13,-411.4 -1136.07,-318.7 -312.4,73 -571.7,283.5 -858.2,427.8 -271.33,136.7 -628.84,213.5 -895.2,28.5 -257.23,-178.8 -459.95,-439 -444.13,-766.7"
         style="fill:#ffac98;fill-opacity:1;fill-rule:nonzero;stroke:none"
         id="path74" /><path
         d="m 6198.64,13175.5 c 129.22,316.1 282.14,619.4 447.03,917.4 -174.63,91.5 -340.83,205.5 -517.33,294.4 -271.33,136.7 -628.84,213.5 -895.2,28.5 -257.23,-178.8 -459.95,-439 -444.13,-766.7 15.65,-324.3 221.54,-619.3 491.02,-800.3 194.7,-130.8 419.08,-208.2 650.5,-252.5 103.83,186.3 188.58,384.8 268.11,579.2"
         style="fill:#ffffff;fill-opacity:1;fill-rule:nonzero;stroke:none"
         id="path76" /><path
         d="m 6128.34,14387.3 c 0,0 -12.59,5.7 -36.2,16.4 -11.76,5.4 -26.64,11.2 -43.9,18.6 -8.58,3.7 -18.11,7 -28.13,10.9 -10.06,3.8 -20.57,8.3 -32,12.1 -45.28,16.6 -101.34,33.9 -166.86,47.4 -65.45,13.5 -140.82,22.2 -222.44,18.1 -20.44,-0.4 -41.08,-3.3 -62.14,-5.6 -10.55,-1 -20.98,-3.5 -31.62,-5.3 -10.6,-1.9 -21.36,-3.5 -31.91,-6.5 -10.62,-2.7 -21.33,-5.4 -32.12,-8.1 -10.68,-3.1 -21.26,-6.9 -32.02,-10.3 -5.25,-1.7 -10.52,-3.4 -15.8,-5.1 -5.4,-2.2 -10.82,-4.4 -16.26,-6.5 -10.8,-4.4 -22.04,-8.5 -32.68,-13.3 -42.31,-18.5 -84.91,-41.3 -126.42,-67.2 -41.27,-26.5 -81.39,-56.6 -119.65,-90 -38.43,-33.3 -73.72,-71.3 -106.49,-111.9 -32.65,-40.7 -62.21,-84.7 -86.89,-131.8 -6.72,-11.5 -12.01,-23.7 -17.78,-35.7 l -8.56,-18.1 -7.49,-18.5 -7.43,-18.6 -3.51,-8.9 -3.27,-9.8 -6.54,-19.5 -3.27,-9.8 -2.65,-9.6 c -14.88,-50.8 -24.82,-104.6 -28.85,-158.1 -8.77,-107.5 5.78,-216.4 38.55,-317.7 32.84,-101.4 82.13,-195.7 141.59,-278.5 59.5,-82.8 127.93,-155.1 199.54,-215.7 35.79,-30.3 72.7,-57.3 109.43,-81.9 18.51,-12.7 36.92,-23.9 54.96,-35.2 18.48,-10.7 36.4,-21.7 54.6,-31.3 72.2,-39.4 141.56,-69.9 204.14,-94 62.63,-24 118.61,-41.5 165.04,-54.7 23.17,-6.8 44.12,-11.9 62.2,-16.9 18.23,-4.5 33.73,-8.4 46.3,-11.5 25.25,-5.8 38.72,-8.9 38.72,-8.9 0,0 -13.62,2.4 -39.17,6.8 -25.47,4.8 -62.96,11.4 -110.02,23 -47.11,11.3 -104.03,26.6 -168.13,48.2 -64.06,21.6 -135.47,49.5 -209.8,87.7 -18.77,9.2 -37.29,19.8 -56.43,30.2 -18.81,11 -38.33,22.1 -56.98,34.2 -38.21,24 -76.49,51 -113.86,81.3 -74.67,60.5 -146.83,133.1 -209.05,218.1 -62.15,84.7 -115.51,181.4 -149.81,287.1 -34.61,105.5 -50.52,219.7 -41.67,332.8 4.58,56.6 14.95,112.1 31.24,166.8 l 2.93,10.3 3.31,9.8 6.62,19.5 3.31,9.8 c 1.51,4.2 2.69,6.7 4.05,10.2 l 7.89,19.5 7.97,19.5 9.04,18.9 c 6.1,12.6 11.75,25.4 18.81,37.4 6.88,12.1 13.2,24.5 20.5,36.3 7.42,11.7 14.83,23.3 22.22,35 15.93,22.5 31.73,44.9 49.34,65.7 34.7,41.8 71.93,80.9 112.25,115 40.2,34.1 82.02,65 125.43,91.3 43.66,26 87.67,48.5 132.84,67.1 11.14,4.7 22.17,8.4 33.14,12.6 5.49,2.1 10.95,4.1 16.4,6.2 5.79,1.7 11.56,3.5 17.32,5.3 11.29,3.3 22.4,7 33.59,10 11.3,2.5 22.52,5 33.64,7.5 11.05,2.8 22.27,4.2 33.32,5.9 11.08,1.4 21.96,3.7 32.91,4.5 21.86,1.7 43.26,4 64.32,3.9 42.08,1.4 82.28,-2.1 120.2,-6.3 18.86,-3 37.28,-5.5 55,-9 17.62,-3.9 34.91,-6.8 51.29,-11.2 65.84,-16.4 121.56,-36.2 166.4,-54.6 44.89,-18.4 79.06,-35.4 102.2,-47 22.99,-11.9 35.25,-18.3 35.25,-18.3"
         style="fill:#52565b;fill-opacity:1;fill-rule:nonzero;stroke:none"
         id="path78" /><path
         d="m 5128.92,16183.3 c -97.99,97.4 -257.14,127 -383.61,71.4 -126.47,-55.7 -212.17,-193 -206.56,-331.1 2.77,-68 30.83,-140.7 91.08,-172.5 40.9,-21.5 90.92,-20.8 134.85,-6.4 43.94,14.4 82.68,41.3 118.43,70.6 -62.04,-35.2 -125.15,-73.6 -165.94,-132.2 -40.79,-58.5 -53.42,-142.6 -11.23,-200.1 30.82,-42 84.64,-62.1 136.69,-64.8 130.13,-6.8 257.56,92.9 282.13,220.9 7.77,40.5 6.28,82.1 10.97,123.1 4.68,40.9 16.73,83.2 46.11,112.1 31.16,30.7 67.73,31.7 105.85,18.1 35.54,-12.6 56.65,-14.5 96.61,-5.8 81.34,17.7 157.42,60.3 214.22,121.3 86.83,93.2 127.32,226.8 110.17,353 -17.15,126.3 -90.67,243.1 -195.15,316.1 -86.27,60.2 -193.85,90.9 -298.46,79.7 -104.62,-11.1 -205.02,-65.4 -267.35,-150.2 -62.33,-84.7 -84,-199.4 -51.8,-299.6 l 232.99,-123.6"
         style="fill:#283459;fill-opacity:1;fill-rule:nonzero;stroke:none"
         id="path80" /><path
         d="m 6414.54,14129.4 c 0,0 -2.02,-5.9 -5.82,-16.9 -3.86,-11 -9.24,-27.3 -16.63,-47.8 -14.55,-41 -35.62,-99.5 -61.93,-169.4 -13.09,-34.9 -27.27,-72.7 -42.8,-112.5 -15.42,-39.9 -31.48,-82 -48.85,-125.3 -17.31,-43.2 -34.67,-88.2 -53.29,-133.4 -18.48,-45.3 -37.25,-91.4 -56.03,-137.4 -19.2,-45.8 -38.39,-91.7 -57.29,-136.8 -18.7,-45.3 -38.19,-89.3 -56.46,-132.2 -18.26,-42.9 -36.56,-84 -53.81,-123.1 -17.12,-39.2 -33.76,-76 -49.18,-110 -30.65,-68 -57.08,-124.3 -75.77,-163.7 -9.23,-19.7 -16.9,-35 -21.96,-45.5 -5.1,-10.5 -7.82,-16.1 -7.82,-16.1 0,0 2.02,5.9 5.82,16.9 3.85,11 9.23,27.3 16.61,47.8 14.55,41 35.59,99.6 61.9,169.4 13.07,34.9 27.28,72.7 42.8,112.6 15.39,39.8 31.5,81.9 48.85,125.2 17.34,43.2 34.64,88.2 53.32,133.4 18.49,45.3 37.27,91.3 56.05,137.4 19.2,45.8 38.41,91.7 57.31,136.8 18.77,45.2 38.2,89.3 56.49,132.2 18.24,42.9 36.59,84 53.81,123.1 17.11,39.2 33.78,76 49.17,110 30.66,68 57.07,124.3 75.75,163.7 9.23,19.7 16.9,35 21.94,45.5 5.1,10.5 7.82,16.1 7.82,16.1"
         style="fill:#52565b;fill-opacity:1;fill-rule:nonzero;stroke:none"
         id="path82" /><path
         d="m 6731.39,11197.8 c 0,0 -31.45,-5.3 -86.49,-14.4 -55.07,-8.9 -133.78,-21.2 -228.28,-35.3 -94.51,-14 -204.76,-30.2 -322.88,-47.7 -59.03,-8.7 -120.02,-17.8 -182,-27 -62.01,-8.9 -124.86,-18.7 -187.76,-28.4 -62.85,-9.8 -125.79,-19.1 -187.54,-29.5 -61.79,-10.1 -122.6,-20.1 -181.45,-29.8 -29.37,-5.1 -58.26,-10.1 -86.53,-15 -28.31,-4.8 -56,-9.5 -82.87,-14.5 -53.8,-9.8 -104.66,-19.1 -151.6,-27.7 -46.95,-8.6 -89.94,-16.8 -128.02,-24.3 -38.09,-7.4 -71.38,-13.6 -98.66,-19.3 -54.75,-10.7 -86.04,-16.8 -86.04,-16.8 0,0 30.61,8.9 84.18,24.6 26.8,7.7 59.47,16.7 97.12,26.4 18.8,4.9 38.81,10.2 59.9,15.7 21.19,5.1 43.47,10.6 66.72,16.2 23.27,5.5 47.52,11.3 72.61,17.3 25.19,5.6 51.22,11.3 77.99,17.2 53.53,11.9 110.21,23.3 168.9,34.9 58.8,10.9 119.41,23.1 181.39,33.2 61.86,10.8 124.86,20.7 187.83,30.9 63.11,9.2 126.18,18.7 188.38,27.1 62.13,9 123.5,16 182.78,23.7 59.31,7.3 116.72,13.7 171.18,19.6 54.44,6.1 105.97,11.3 153.55,15.8 47.56,4.9 91.22,8.7 129.91,12.1 38.71,3.3 72.46,6.1 100.25,8.5 55.64,4.1 87.43,6.5 87.43,6.5"
         style="fill:#52565b;fill-opacity:1;fill-rule:nonzero;stroke:none"
         id="path84" /><path
         d="m 5957.68,10649.1 8.6,-25.5 7.03,-26.2 5.29,-26.6 3.51,-26.9 1.91,-27.2 0.32,-27.2 -1.27,-27.3 -2.83,-27.2 -4.41,-27.1 -5.97,-26.8 -7.77,-26.4 -9.4,-25.9 -10.93,-25.3 -12.46,-24.7 -13.97,-23.9 -15.46,-23 -16.63,-21.7 -18.54,-21.3 -19.53,-19.8 -20.69,-18.6 -21.77,-17.4 -22.76,-16 -23.72,-14.7 -24.67,-13 -25.38,-11.6 -26.02,-10.1 -26.59,-8.6 -27.06,-7.1 -27.45,-5.4 -27.76,-3.8 -27.97,-2.1 -28.09,-0.3 18.56,14.3 c -7.59,-33.8 -13.61,-68.7 -19.37,-103.6 -5.72,-34.9 -11.16,-70 -16.42,-105.1 l -30.86,-210.9 -61.8,-422.2 c -21.15,-140.7 -42.73,-281.3 -65.98,-421.7 -23.06,-140.4 -46.99,-280.6 -71.89,-420.7 -99.55,-560.3 -214.69,-1118 -349.24,-1671 -67.19,-276.6 -140.71,-551.5 -218.94,-825.1 -39.09,-136.9 -79.98,-273.1 -121.89,-409.1 -41.86,-136 -85.81,-271.3 -130.74,-406.3 -44.86,-135 -91.98,-269.3 -140.6,-403 -48.55,-133.7 -99.36,-266.6 -151.32,-399 -52.16,-132.4 -106.52,-263.8 -162.23,-394.7 -56.14,-130.7 -114.73,-260.3 -174.72,-389.2 115.86,259.7 224.31,522.7 325.41,788.3 50.24,133 99.33,266.4 146.13,400.6 46.61,134.2 92.67,268.7 136.51,403.9 43.83,135.1 86.67,270.6 127.43,406.8 40.81,136.1 80.6,272.5 118.57,409.4 38,136.9 74.84,274.2 110.29,411.8 35.28,137.6 69.4,275.5 102.86,413.6 132.94,552.6 246.51,1109.8 344.51,1669.7 24.51,140 48.05,280.1 70.73,420.4 22.54,140.3 44.9,280.7 66.29,421.2 l 62.83,421.8 31.43,211 c 5.36,35.2 10.92,70.4 16.77,105.6 5.92,35.3 12.02,70.4 20.11,106 l 3.26,14.3 h 15.3 l 25.76,-0.1 25.74,1.6 25.63,3.1 25.42,4.7 25.13,6.2 24.74,7.6 24.28,9.1 23.73,10.5 23.1,11.8 22.55,12.8 21.82,14.1 20.98,15.4 20.05,16.6 19.02,17.8 17.64,18.6 16.98,20.3 15.43,21.1 14.11,22 12.76,22.9 11.37,23.7 9.97,24.3 8.63,24.9 7.44,25.3 5.98,25.8 4.5,26.1 2.99,26.4 1.46,26.5 -0.09,26.7 -1.67,26.6 -3.11,26.6 -4.6,26.4 -6.29,26.2"
         style="fill:#233fe1;fill-opacity:1;fill-rule:nonzero;stroke:none"
         id="path86" /><path
         d="m 9263.83,17657.4 c 0,0 -7.81,7.8 -20.81,22 -13.03,14.2 -31.4,34.5 -52.78,59.4 -10.71,12.4 -22.4,25.8 -34.33,40.3 -11.99,14.4 -24.93,29.4 -37.78,45.3 -25.96,31.6 -53.27,65.5 -80.27,99.8 -26.97,34.2 -53.66,68.7 -78.33,101.3 -12.45,16.2 -24.03,32.2 -35.24,47.3 -11.29,15 -21.6,29.4 -31.17,42.8 -19.21,26.6 -34.69,49.2 -45.42,65.2 -10.75,15.9 -16.54,25.4 -16.54,25.4 0,0 8.44,-7.2 22.58,-20.3 7.07,-6.5 15.68,-14.4 25.18,-23.8 9.62,-9.3 20.43,-19.9 31.8,-31.8 11.54,-11.7 23.91,-24.5 36.57,-38.5 12.81,-13.8 26.22,-28.4 39.74,-43.9 13.48,-15.5 27.4,-31.5 41.07,-48.2 13.88,-16.5 27.46,-33.7 41.17,-50.8 13.41,-17.3 26.92,-34.5 39.73,-51.9 12.99,-17.2 25.37,-34.4 37.26,-51.2 11.89,-16.7 22.98,-33.2 33.45,-48.9 10.6,-15.5 20.17,-30.6 28.9,-44.5 17.65,-27.8 31.43,-51.6 40.82,-68.4 9.4,-16.8 14.4,-26.6 14.4,-26.6"
         style="fill:#52565b;fill-opacity:1;fill-rule:nonzero;stroke:none"
         id="path88" /><path
         d="m 9464.84,17716.3 c 0,0 -2.48,11.6 -6,32 -3.53,20.4 -8.28,49.5 -12.87,84.5 -2.36,17.5 -4.92,36.5 -7.05,56.6 -2.26,20.1 -4.85,41.3 -6.72,63.2 -1.96,22 -4.41,44.6 -6.12,67.7 -1.91,23.1 -3.47,46.5 -5.07,70 -1.39,23.4 -2.85,46.9 -3.87,70 -1.28,23.1 -1.67,45.9 -2.52,67.9 -0.92,22 -1.08,43.3 -1.36,63.6 -0.42,20.2 -0.32,39.3 -0.18,57 0.11,35.3 1.15,64.8 2.08,85.5 0.92,20.6 1.92,32.5 1.92,32.5 0,0 2.49,-11.6 6.02,-32 3.54,-20.4 8.32,-49.5 12.9,-84.6 2.39,-17.5 4.91,-36.4 7.06,-56.5 2.28,-20.1 4.82,-41.3 6.71,-63.3 1.95,-21.9 4.44,-44.6 6.1,-67.6 1.92,-23.1 3.44,-46.6 5.04,-70 1.38,-23.5 2.81,-46.9 3.84,-70 1.23,-23.1 1.67,-45.9 2.51,-67.9 0.92,-22.1 1.04,-43.4 1.35,-63.6 0.43,-20.2 0.3,-39.4 0.18,-57 -0.11,-35.4 -1.13,-64.9 -2.05,-85.5 -0.92,-20.7 -1.9,-32.5 -1.9,-32.5"
         style="fill:#52565b;fill-opacity:1;fill-rule:nonzero;stroke:none"
         id="path90" /><path
         d="m 9689.67,17819.4 c 0,0 1.95,8.6 6.11,23.4 4.15,14.7 10.34,35.7 18.8,60.4 16.36,49.7 41.73,114.4 69.95,177.7 28.3,63.4 59.46,125.4 85.54,170.8 12.75,22.8 24.25,41.4 32.48,54.3 8.23,13 13.36,20.2 13.36,20.2 0,0 -1.94,-8.6 -6.09,-23.4 -4.14,-14.8 -10.32,-35.8 -18.78,-60.5 -16.33,-49.7 -41.74,-114.3 -69.99,-177.7 -28.35,-63.3 -59.53,-125.3 -85.59,-170.7 -12.76,-22.8 -24.24,-41.4 -32.46,-54.4 -8.21,-12.9 -13.33,-20.1 -13.33,-20.1"
         style="fill:#52565b;fill-opacity:1;fill-rule:nonzero;stroke:none"
         id="path92" /><path
         d="m 16405,5052.3 h -5998.1 c -222.7,0 -403.3,180.5 -403.3,403.3 v 11173.3 c 0,222.7 180.6,403.3 403.3,403.3 H 16405 c 222.8,0 403.3,-180.6 403.3,-403.3 V 5455.6 c 0,-222.8 -180.5,-403.3 -403.3,-403.3"
         style="fill:#f0f4ff;fill-opacity:1;fill-rule:nonzero;stroke:none"
         id="path94" /><path
         d="m 14515.9,14174.9 c 0,-630.1 -510.8,-1140.9 -1140.9,-1140.9 -630.1,0 -1140.9,510.8 -1140.9,1140.9 0,630.1 510.8,1140.9 1140.9,1140.9 630.1,0 1140.9,-510.8 1140.9,-1140.9"
         style="fill:#4e77f7;fill-opacity:1;fill-rule:nonzero;stroke:none"
         id="path96" /><path
         d="m 14196.5,13514.3 c 16.3,79.8 -83.8,142.4 -158.2,175.5 -132.6,58.8 -411.6,61.5 -460.1,213.8 -55,173.1 159.3,372.8 120.4,551.2 -76.6,351.5 -567.6,364.7 -647.2,0 -38.9,-178.4 175.4,-378.1 120.3,-551.2 -48.4,-152.3 -327.5,-155 -460,-213.8 -74.4,-33.1 -174.5,-95.7 -158.3,-175.5 0,0 279.2,-409.1 840.7,-409.1 530.2,0 802.4,409.1 802.4,409.1"
         style="fill:#ffffff;fill-opacity:1;fill-rule:nonzero;stroke:none"
         id="path98" /><path
         d="m 14077.1,5802.2 c 0,-370.7 -300.5,-671.1 -671.1,-671.1 -370.7,0 -671.2,300.4 -671.2,671.1 0,370.6 300.5,671.1 671.2,671.1 370.6,0 671.1,-300.5 671.1,-671.1"
         style="fill:#4e77f7;fill-opacity:1;fill-rule:nonzero;stroke:none"
         id="path100" /><path
         d="m 13041.9,5944.2 c 0,0 3.6,-2.5 10.4,-7.3 6.6,-4.9 16.6,-11.8 28.8,-21.1 24.8,-18.4 59.6,-45.1 100.5,-78.1 41,-33 88,-72.3 137.5,-115.3 12.3,-10.8 24.8,-21.8 37.5,-33 6.2,-5.5 12.5,-11 18.8,-16.5 5.9,-5.2 11.3,-9.5 16.1,-12.2 2.5,-1.4 4.7,-2.4 6.7,-3.1 1,-0.4 1.9,-0.6 2.8,-0.8 l 0.4,-0.1 h 0.2 c -0.8,0.1 1.8,-0.3 -1.6,0.3 l 1.6,-0.2 3.2,-0.5 c 2.3,0 6.7,0.3 11.4,2.1 9.6,3.5 21.2,12.2 32.3,23 10.9,10.5 23.5,24.2 35.4,36.5 12.1,12.5 24.2,24.9 36.2,37.3 24,24.7 48,48.6 71.3,71.6 46.7,46.1 91.2,88.2 130,123.7 38.9,35.4 71.9,64.3 95.5,84.2 11.6,10 21.1,17.5 27.5,22.8 6.4,5.2 9.9,7.9 9.9,7.9 0,0 -2.6,-3.5 -7.4,-10.3 -5,-6.6 -12,-16.5 -21.4,-28.7 -18.5,-24.5 -45.6,-59.1 -78.9,-99.8 -33.3,-40.6 -73,-87.3 -116.5,-136.4 -21.8,-24.5 -44.4,-49.8 -67.7,-75.1 -11.7,-12.6 -23.5,-25.3 -35.3,-38.1 -12.2,-12.8 -23.1,-25.1 -37.2,-39 -14.2,-13.1 -30.4,-27 -53.7,-35.6 -11.6,-4.1 -25,-6.4 -39.9,-4.4 l -3.2,0.6 -1.6,0.2 c -3.6,0.7 -1.3,0.3 -2.3,0.5 l -0.6,0.1 -1.3,0.3 c -3.3,0.8 -6.5,1.9 -9.5,3 -6.1,2.4 -11.6,5.3 -16.5,8.4 -9.9,6.2 -17.6,13 -24.4,19.3 -6.2,6.1 -12.3,12.1 -18.5,18.1 -12,11.8 -23.8,23.5 -35.5,35.1 -46.5,46.2 -89,90.3 -124.8,128.8 -35.8,38.6 -65,71.4 -85,94.7 -10.2,11.5 -17.8,21 -23.2,27.3 -5.2,6.4 -8,9.8 -8,9.8"
         style="fill:#ffffff;fill-opacity:1;fill-rule:nonzero;stroke:none"
         id="path102" /><path
         d="m 15518.8,8503.6 h -4287.7 c -176,0 -318.7,142.7 -318.7,318.7 v 494.1 c 0,176 142.7,318.7 318.7,318.7 h 4287.7 c 176.1,0 318.7,-142.7 318.7,-318.7 v -494.1 c 0,-176 -142.6,-318.7 -318.7,-318.7"
         style="fill:#ffffff;fill-opacity:1;fill-rule:nonzero;stroke:none"
         id="path104" /><path
         d="m 12090.2,9069.4 c 0,-129.8 -105.2,-234.9 -234.9,-234.9 -129.7,0 -234.9,105.1 -234.9,234.9 0,129.7 105.2,234.9 234.9,234.9 129.7,0 234.9,-105.2 234.9,-234.9"
         style="fill:#4e77f7;fill-opacity:1;fill-rule:nonzero;stroke:none"
         id="path106" /><path
         d="m 15281.2,9240.7 c 0,0 -10.8,-0.6 -31,-1.7 -20.1,-0.9 -49.7,-2.8 -87.4,-4.3 -37.6,-1.6 -83.4,-3.7 -135.8,-5.5 -52.4,-1.9 -111.6,-4.1 -176.2,-5.7 -64.5,-1.9 -134.4,-3.9 -208.4,-5.2 -74,-1.4 -151.9,-3.3 -232.6,-4 -80.7,-0.8 -164.1,-2.5 -248.8,-2.6 -84.7,-0.3 -170.8,-0.7 -256.8,-1 -86.1,0.3 -172.2,0.7 -256.9,1 -84.7,0 -168.1,1.8 -248.8,2.5 -80.6,0.8 -158.6,2.6 -232.6,4.1 -74,1.3 -143.9,3.2 -208.4,5.1 -64.6,1.7 -123.7,3.8 -176.2,5.8 -52.4,1.7 -98.2,3.9 -135.8,5.5 -37.7,1.5 -67.2,3.4 -87.4,4.3 -20.2,1.1 -30.9,1.7 -30.9,1.7 0,0 10.7,0.5 30.9,1.6 20.2,1 49.7,2.8 87.4,4.3 37.6,1.7 83.4,3.8 135.8,5.5 52.5,2 111.6,4.1 176.2,5.8 64.5,1.9 134.4,3.9 208.4,5.2 74,1.5 152,3.2 232.6,4 80.7,0.7 164.1,2.5 248.8,2.5 84.7,0.4 170.8,0.7 256.9,1 86,-0.3 172.1,-0.7 256.8,-1 84.7,-0.1 168.1,-1.8 248.8,-2.6 80.7,-0.7 158.6,-2.6 232.6,-4 74,-1.3 143.9,-3.3 208.4,-5.2 64.6,-1.6 123.8,-3.8 176.2,-5.7 52.4,-1.7 98.2,-3.9 135.8,-5.5 37.7,-1.5 67.3,-3.4 87.4,-4.3 20.2,-1.1 31,-1.6 31,-1.6"
         style="fill:#4e77f7;fill-opacity:1;fill-rule:nonzero;stroke:none"
         id="path108" /><path
         d="m 15281.2,8904.1 c 0,0 -10.8,-0.6 -31,-1.7 -20.1,-0.9 -49.7,-2.8 -87.4,-4.3 -37.6,-1.6 -83.4,-3.7 -135.8,-5.5 -52.4,-1.9 -111.6,-4.1 -176.2,-5.7 -64.5,-1.9 -134.4,-3.9 -208.4,-5.2 -74,-1.4 -151.9,-3.3 -232.6,-4 -80.7,-0.8 -164.1,-2.5 -248.8,-2.6 -84.7,-0.3 -170.8,-0.7 -256.8,-1 -86.1,0.3 -172.2,0.7 -256.9,1 -84.7,0 -168.1,1.8 -248.8,2.5 -80.6,0.8 -158.6,2.6 -232.6,4.1 -74,1.3 -143.9,3.2 -208.4,5.1 -64.6,1.7 -123.7,3.8 -176.2,5.8 -52.4,1.7 -98.2,3.9 -135.8,5.5 -37.7,1.5 -67.2,3.4 -87.4,4.3 -20.2,1.1 -30.9,1.7 -30.9,1.7 0,0 10.7,0.5 30.9,1.6 20.2,1 49.7,2.8 87.4,4.3 37.6,1.7 83.4,3.8 135.8,5.5 52.5,2 111.6,4.1 176.2,5.8 64.5,1.9 134.4,3.9 208.4,5.2 74,1.5 152,3.2 232.6,4 80.7,0.7 164.1,2.5 248.8,2.5 84.7,0.4 170.8,0.7 256.9,1 86,-0.3 172.1,-0.7 256.8,-1 84.7,-0.1 168.1,-1.8 248.8,-2.6 80.7,-0.7 158.6,-2.6 232.6,-4 74,-1.3 143.9,-3.3 208.4,-5.2 64.6,-1.6 123.8,-3.8 176.2,-5.7 52.4,-1.7 98.2,-3.9 135.8,-5.5 37.7,-1.5 67.3,-3.4 87.4,-4.3 20.2,-1.1 31,-1.6 31,-1.6"
         style="fill:#4e77f7;fill-opacity:1;fill-rule:nonzero;stroke:none"
         id="path110" /><path
         d="m 15518.8,7132 h -4287.7 c -176,0 -318.7,142.6 -318.7,318.7 v 494.1 c 0,176 142.7,318.7 318.7,318.7 h 4287.7 c 176.1,0 318.7,-142.7 318.7,-318.7 v -494.1 c 0,-176.1 -142.6,-318.7 -318.7,-318.7"
         style="fill:#ffffff;fill-opacity:1;fill-rule:nonzero;stroke:none"
         id="path112" /><path
         d="m 12090.2,7697.7 c 0,-129.7 -105.2,-234.9 -234.9,-234.9 -129.7,0 -234.9,105.2 -234.9,234.9 0,129.8 105.2,234.9 234.9,234.9 129.7,0 234.9,-105.1 234.9,-234.9"
         style="fill:#d5dcff;fill-opacity:1;fill-rule:nonzero;stroke:none"
         id="path114" /><path
         d="m 15281.2,7869 c 0,0 -10.8,-0.5 -31,-1.6 -20.1,-1 -49.7,-2.8 -87.4,-4.3 -37.6,-1.6 -83.4,-3.8 -135.8,-5.5 -52.4,-1.9 -111.6,-4.1 -176.2,-5.7 -64.5,-1.9 -134.4,-3.9 -208.4,-5.2 -74,-1.4 -151.9,-3.3 -232.6,-4 -80.7,-0.8 -164.1,-2.5 -248.8,-2.6 -84.7,-0.4 -170.8,-0.7 -256.8,-1.1 -86.1,0.4 -172.2,0.7 -256.9,1.1 -84.7,0 -168.1,1.7 -248.8,2.5 -80.6,0.7 -158.6,2.5 -232.6,4 -74,1.3 -143.9,3.3 -208.4,5.2 -64.6,1.7 -123.7,3.8 -176.2,5.8 -52.4,1.7 -98.2,3.8 -135.8,5.5 -37.7,1.5 -67.2,3.3 -87.4,4.3 -20.2,1.1 -30.9,1.6 -30.9,1.6 0,0 10.7,0.6 30.9,1.7 20.2,0.9 49.7,2.8 87.4,4.3 37.6,1.6 83.4,3.8 135.8,5.5 52.5,2 111.6,4.1 176.2,5.8 64.5,1.9 134.4,3.8 208.4,5.1 74,1.5 152,3.3 232.6,4 80.7,0.8 164.1,2.6 248.8,2.6 84.7,0.3 170.8,0.7 256.9,1 86,-0.3 172.1,-0.7 256.8,-1 84.7,-0.2 168.1,-1.8 248.8,-2.6 80.7,-0.7 158.6,-2.6 232.6,-4.1 74,-1.2 143.9,-3.3 208.4,-5.1 64.6,-1.7 123.8,-3.8 176.2,-5.7 52.4,-1.8 98.2,-3.9 135.8,-5.5 37.7,-1.5 67.3,-3.4 87.4,-4.4 20.2,-1 31,-1.6 31,-1.6"
         style="fill:#d5dcff;fill-opacity:1;fill-rule:nonzero;stroke:none"
         id="path116" /><path
         d="m 15281.2,7532.4 c 0,0 -10.8,-0.5 -31,-1.6 -20.1,-1 -49.7,-2.8 -87.4,-4.3 -37.6,-1.6 -83.4,-3.8 -135.8,-5.5 -52.4,-1.9 -111.6,-4.1 -176.2,-5.7 -64.5,-1.9 -134.4,-3.9 -208.4,-5.2 -74,-1.4 -151.9,-3.3 -232.6,-4 -80.7,-0.8 -164.1,-2.5 -248.8,-2.6 -84.7,-0.4 -170.8,-0.7 -256.8,-1.1 -86.1,0.4 -172.2,0.7 -256.9,1.1 -84.7,0 -168.1,1.7 -248.8,2.5 -80.6,0.7 -158.6,2.5 -232.6,4 -74,1.3 -143.9,3.3 -208.4,5.2 -64.6,1.7 -123.7,3.8 -176.2,5.8 -52.4,1.7 -98.2,3.8 -135.8,5.5 -37.7,1.5 -67.2,3.3 -87.4,4.3 -20.2,1.1 -30.9,1.6 -30.9,1.6 0,0 10.7,0.6 30.9,1.7 20.2,0.9 49.7,2.8 87.4,4.3 37.6,1.6 83.4,3.8 135.8,5.5 52.5,2 111.6,4.1 176.2,5.8 64.5,1.9 134.4,3.8 208.4,5.1 74,1.5 152,3.3 232.6,4 80.7,0.8 164.1,2.6 248.8,2.6 84.7,0.3 170.8,0.7 256.9,1 86,-0.3 172.1,-0.7 256.8,-1 84.7,-0.2 168.1,-1.8 248.8,-2.6 80.7,-0.7 158.6,-2.6 232.6,-4.1 74,-1.2 143.9,-3.3 208.4,-5.1 64.6,-1.7 123.8,-3.8 176.2,-5.7 52.4,-1.8 98.2,-3.9 135.8,-5.5 37.7,-1.5 67.3,-3.4 87.4,-4.4 20.2,-1 31,-1.6 31,-1.6"
         style="fill:#d5dcff;fill-opacity:1;fill-rule:nonzero;stroke:none"
         id="path118" /><path
         d="m 14499.3,10268 h -2186.7 c -82.8,0 -150,67.1 -150,150 v 1042.2 c 0,82.8 67.2,150 150,150 h 2186.7 c 82.8,0 150,-67.2 150,-150 V 10418 c 0,-82.9 -67.2,-150 -150,-150"
         style="fill:#ffffff;fill-opacity:1;fill-rule:nonzero;stroke:none"
         id="path120" /><path
         d="m 13681.8,10708.9 c 0,-129.7 -105.2,-234.9 -234.9,-234.9 -129.8,0 -234.9,105.2 -234.9,234.9 0,129.7 105.1,234.9 234.9,234.9 129.7,0 234.9,-105.2 234.9,-234.9"
         style="fill:#4e77f7;fill-opacity:1;fill-rule:nonzero;stroke:none"
         id="path122" /><path
         d="m 14222,11220.9 c 0,0 -6.4,-0.5 -18.4,-1.7 -11.9,-0.9 -29.5,-2.7 -51.8,-4.2 -22.3,-1.6 -49.4,-3.7 -80.5,-5.5 -31,-1.9 -66.1,-4.1 -104.3,-5.7 -38.3,-1.9 -79.7,-3.9 -123.6,-5.2 -43.8,-1.4 -90,-3.3 -137.8,-4 -47.8,-0.8 -97.2,-2.5 -147.4,-2.6 -50.2,-0.3 -101.2,-0.7 -152.2,-1 -51,0.1 -102,0.2 -152.2,0.9 -50.2,0.2 -99.7,1.8 -147.5,2.6 -47.8,0.8 -94,2.6 -137.8,4.1 -43.9,1.3 -85.3,3.2 -123.5,5.1 -38.3,1.7 -73.4,3.8 -104.4,5.8 -31.1,1.7 -58.2,3.9 -80.5,5.5 -22.3,1.5 -39.9,3.3 -51.8,4.2 -12,1.2 -18.3,1.7 -18.3,1.7 0,0 6.3,0.7 18.3,1.8 11.9,0.9 29.5,2.7 51.8,4.2 22.3,1.7 49.4,3.8 80.5,5.5 31,2 66.1,4.1 104.4,5.8 38.2,1.9 79.6,3.9 123.5,5.2 43.8,1.5 90,3.2 137.8,4 47.8,0.8 97.3,2.4 147.5,2.7 50.2,0.6 101.2,0.7 152.2,0.8 51,-0.3 102,-0.7 152.2,-1 50.2,-0.1 99.6,-1.8 147.4,-2.6 47.8,-0.7 94,-2.6 137.8,-4 43.9,-1.3 85.3,-3.3 123.6,-5.2 38.2,-1.6 73.3,-3.8 104.3,-5.7 31.1,-1.7 58.2,-3.9 80.5,-5.5 22.3,-1.5 39.9,-3.3 51.8,-4.2 12,-1.1 18.4,-1.8 18.4,-1.8"
         style="fill:#4e77f7;fill-opacity:1;fill-rule:nonzero;stroke:none"
         id="path124" /><path
         d="m 17589.6,10268 h -2186.7 c -82.9,0 -150,67.1 -150,150 v 1042.2 c 0,82.8 67.1,150 150,150 h 2186.7 c 82.8,0 150,-67.2 150,-150 V 10418 c 0,-82.9 -67.2,-150 -150,-150"
         style="fill:#ffffff;fill-opacity:1;fill-rule:nonzero;stroke:none"
         id="path126" /><path
         d="m 16772,10708.9 c 0,-129.7 -105.1,-234.9 -234.9,-234.9 -129.7,0 -234.8,105.2 -234.8,234.9 0,129.7 105.1,234.9 234.8,234.9 129.8,0 234.9,-105.2 234.9,-234.9"
         style="fill:#d5dcff;fill-opacity:1;fill-rule:nonzero;stroke:none"
         id="path128" /><path
         d="m 17312.2,11220.9 c 0,0 -6.3,-0.5 -18.3,-1.7 -12,-0.9 -29.5,-2.7 -51.8,-4.2 -22.3,-1.6 -49.4,-3.7 -80.5,-5.5 -31.1,-1.9 -66.1,-4.1 -104.4,-5.7 -38.2,-1.9 -79.7,-3.9 -123.5,-5.2 -43.8,-1.4 -90,-3.3 -137.8,-4 -47.9,-0.8 -97.3,-2.5 -147.5,-2.6 -50.2,-0.3 -101.2,-0.7 -152.2,-1 -51,0.1 -102,0.2 -152.2,0.9 -50.2,0.2 -99.6,1.8 -147.4,2.6 -47.8,0.8 -94,2.6 -137.9,4.1 -43.8,1.3 -85.2,3.2 -123.5,5.1 -38.2,1.7 -73.3,3.8 -104.4,5.8 -31,1.7 -58.1,3.9 -80.4,5.5 -22.4,1.5 -39.9,3.3 -51.8,4.2 -12,1.2 -18.4,1.7 -18.4,1.7 0,0 6.4,0.7 18.4,1.8 11.9,0.9 29.4,2.7 51.8,4.2 22.3,1.7 49.4,3.8 80.4,5.5 31.1,2 66.2,4.1 104.4,5.8 38.3,1.9 79.7,3.9 123.5,5.2 43.9,1.5 90.1,3.2 137.9,4 47.8,0.8 97.2,2.4 147.4,2.7 50.2,0.6 101.2,0.7 152.2,0.8 51,-0.3 102,-0.7 152.2,-1 50.2,-0.1 99.6,-1.8 147.5,-2.6 47.8,-0.7 94,-2.6 137.8,-4 43.8,-1.3 85.3,-3.3 123.5,-5.2 38.3,-1.6 73.3,-3.8 104.4,-5.7 31.1,-1.7 58.2,-3.9 80.5,-5.5 22.3,-1.5 39.8,-3.3 51.8,-4.2 12,-1.1 18.3,-1.8 18.3,-1.8"
         style="fill:#d5dcff;fill-opacity:1;fill-rule:nonzero;stroke:none"
         id="path130" /><path
         d="M 11409,10268 H 9222.34 c -82.84,0 -150,67.1 -150,150 v 1042.2 c 0,82.8 67.16,150 150,150 H 11409 c 82.9,0 150,-67.2 150,-150 V 10418 c 0,-82.9 -67.1,-150 -150,-150"
         style="fill:#ffffff;fill-opacity:1;fill-rule:nonzero;stroke:none"
         id="path132" /><path
         d="m 10591.5,10708.9 c 0,-129.7 -105.2,-234.9 -234.9,-234.9 -129.7,0 -234.9,105.2 -234.9,234.9 0,129.7 105.2,234.9 234.9,234.9 129.7,0 234.9,-105.2 234.9,-234.9"
         style="fill:#d5dcff;fill-opacity:1;fill-rule:nonzero;stroke:none"
         id="path134" /><path
         d="m 11131.7,11220.9 c 0,0 -6.4,-0.5 -18.3,-1.7 -12,-0.9 -29.5,-2.7 -51.8,-4.2 -22.4,-1.6 -49.4,-3.7 -80.5,-5.5 -31.1,-1.9 -66.2,-4.1 -104.4,-5.7 -38.3,-1.9 -79.7,-3.9 -123.5,-5.2 -43.9,-1.4 -90.1,-3.3 -137.9,-4 -47.8,-0.8 -97.2,-2.5 -147.4,-2.6 -50.2,-0.3 -101.2,-0.7 -152.2,-1 -51,0.1 -102,0.2 -152.2,0.9 -50.2,0.2 -99.6,1.8 -147.4,2.6 -47.85,0.8 -94.07,2.6 -137.9,4.1 -43.83,1.3 -85.27,3.2 -123.52,5.1 -38.25,1.7 -73.31,3.8 -104.39,5.8 -31.07,1.7 -58.17,3.9 -80.48,5.5 -22.31,1.5 -39.84,3.3 -51.8,4.2 -11.95,1.2 -18.33,1.7 -18.33,1.7 0,0 6.38,0.7 18.33,1.8 11.96,0.9 29.49,2.7 51.8,4.2 22.31,1.7 49.41,3.8 80.48,5.5 31.08,2 66.14,4.1 104.39,5.8 38.25,1.9 79.69,3.9 123.52,5.2 43.83,1.5 90.05,3.2 137.9,4 47.8,0.8 97.2,2.4 147.4,2.7 50.2,0.6 101.2,0.7 152.2,0.8 51,-0.3 102,-0.7 152.2,-1 50.2,-0.1 99.6,-1.8 147.4,-2.6 47.8,-0.7 94,-2.6 137.9,-4 43.8,-1.3 85.2,-3.3 123.5,-5.2 38.2,-1.6 73.3,-3.8 104.4,-5.7 31.1,-1.7 58.1,-3.9 80.5,-5.5 22.3,-1.5 39.8,-3.3 51.8,-4.2 11.9,-1.1 18.3,-1.8 18.3,-1.8"
         style="fill:#d5dcff;fill-opacity:1;fill-rule:nonzero;stroke:none"
         id="path136" /><path
         d="m 15292.9,14482.1 c 0,0 2.4,-1.7 6.8,-4.9 4.3,-3.3 10.9,-7.9 18.7,-14.2 15.9,-12.4 38.2,-30.5 63.9,-53.2 25.7,-22.6 54.9,-49.8 85.2,-79.7 15.2,-15 30.7,-30.7 46.2,-46.8 7.1,-7.9 17.6,-16.8 25.9,-33.8 4.1,-8.4 7.3,-20.3 5.7,-32.7 l -0.1,-1.1 -0.1,-0.6 -0.3,-1.5 -0.2,-1.1 -0.3,-1.3 -0.7,-2.8 c -0.5,-2 -1.1,-3.5 -1.5,-4.7 -0.6,-1.4 -1.1,-2.8 -1.7,-4 -2.4,-5.1 -5.2,-9.5 -8.1,-13.1 -5.8,-7.3 -11.5,-12.1 -16.4,-16.2 l -13.1,-10.9 c -8.6,-7.1 -17.1,-14.1 -25.6,-21.1 -16.8,-14.2 -33.4,-28.1 -49.5,-41.6 -32,-27.5 -61.9,-53.1 -87.5,-75.1 -25.7,-22.2 -47.3,-40.8 -62.8,-53.7 -15.3,-12.9 -24.5,-20.1 -24.5,-20.1 0,0 1.3,2.6 3.9,7.4 2.6,4.7 6.2,11.9 11.5,20.5 10.2,17.4 25.7,41.8 46.5,69.5 20.6,27.8 46.4,58.9 76.4,90.2 15,15.6 30.8,31.4 47.6,46.7 8.4,7.6 17.1,15.7 25.7,22.9 l 12.9,11 c 3.8,3.2 6.6,6 7.8,7.6 0.7,0.8 1,1.3 1,1.3 0,0 0,0 0,0 0,0 -0.1,-0.1 -0.2,-0.8 -0.1,-0.2 -0.1,-0.5 -0.2,-0.8 0,-0.1 0.2,0.6 0.2,0.9 l 0.2,1 c 0,-0.5 0.3,1.5 -0.1,-1 l -0.1,-0.1 v -0.1 c -0.1,-1 0.4,-1.4 -0.3,0.4 -1.4,3.5 -7.2,10.9 -15,19.6 -14.7,16.8 -28.8,33.7 -42.3,50.2 -27.1,32.9 -51.5,64.5 -71.7,92.2 -20.2,27.7 -36.2,51.5 -47.1,68.5 -5.6,8.4 -9.5,15.3 -12.4,19.9 -2.8,4.7 -4.3,7.2 -4.3,7.2"
         style="fill:#4e77f7;fill-opacity:1;fill-rule:nonzero;stroke:none"
         id="path138" /><path
         d="m 11519,14482.1 c 0,0 -1.5,-2.5 -4.3,-7.2 -2.9,-4.6 -6.8,-11.5 -12.4,-19.9 -10.8,-17 -26.9,-40.8 -47.1,-68.5 -20.2,-27.7 -44.6,-59.3 -71.6,-92.2 -13.6,-16.5 -27.7,-33.4 -42.4,-50.2 -7.8,-8.7 -13.6,-16.1 -15,-19.6 -0.7,-1.8 -0.2,-1.4 -0.3,-0.4 v 0.1 0.1 c -0.5,2.5 -0.1,0.5 -0.2,1 l 0.2,-1 c 0.1,-0.3 0.2,-1 0.2,-0.9 0,0.3 -0.1,0.6 -0.1,0.8 -0.2,0.7 -0.3,0.8 -0.3,0.8 0,0 0,0 0,0 0,0 0.3,-0.5 1,-1.3 1.3,-1.6 4,-4.4 7.8,-7.6 l 12.9,-11 c 8.6,-7.2 17.3,-15.3 25.7,-22.9 16.8,-15.3 32.6,-31.1 47.6,-46.7 30,-31.3 55.8,-62.4 76.5,-90.2 20.7,-27.7 36.2,-52.1 46.4,-69.5 5.3,-8.6 8.9,-15.8 11.6,-20.5 2.5,-4.8 3.8,-7.4 3.8,-7.4 0,0 -9.2,7.2 -24.5,20.1 -15.5,12.9 -37.1,31.5 -62.8,53.7 -25.6,22 -55.5,47.6 -87.5,75.1 -16.1,13.5 -32.6,27.4 -49.5,41.6 -8.5,7 -17,14 -25.5,21.1 l -13.2,10.9 c -4.9,4.1 -10.6,8.9 -16.4,16.2 -2.8,3.6 -5.7,8 -8.1,13.1 -0.6,1.2 -1.1,2.6 -1.6,4 -0.5,1.2 -1.1,2.7 -1.6,4.7 l -0.7,2.8 -0.3,1.3 -0.2,1.1 -0.3,1.5 v 0.6 l -0.2,1.1 c -1.5,12.4 1.6,24.3 5.7,32.7 8.3,17 18.8,25.9 25.9,33.8 15.5,16.1 31,31.8 46.2,46.8 30.3,29.9 59.5,57.1 85.2,79.7 25.7,22.7 48,40.8 63.9,53.2 7.9,6.3 14.4,10.9 18.7,14.2 4.4,3.2 6.8,4.9 6.8,4.9"
         style="fill:#4e77f7;fill-opacity:1;fill-rule:nonzero;stroke:none"
         id="path140" /><path
         d="m 15908.5,16197.9 c 86,46.1 193.2,13.7 239.3,-72.3 46.1,-86.1 13.7,-193.2 -72.3,-239.3 -86.1,-46.1 -193.2,-13.7 -239.3,72.3 -46.1,86 -13.7,193.2 72.3,239.3 z m 11.2,-388 c 14.5,-4.4 29.1,-7.3 43.7,-8.9 l 25.3,-58.3 85.2,12.3 7.9,62.3 c 14.9,6.1 29.3,13.6 42.7,22.4 l 55.8,-27.7 57.4,64.1 -32.8,50.8 c 7.9,14.4 14.4,29.8 19.3,46.2 0.2,0.3 0.2,0.7 0.3,1.1 l 58,13.9 2.8,86.1 -55.4,17.1 c -3.5,17.8 -9.1,35 -16.4,51.5 l 34.1,46 -53.2,67.7 -51.7,-21.8 c -14.4,11.5 -30.3,21.6 -47.4,29.7 l -3.5,55.7 -84.2,17.6 -25.6,-49.8 c -18.7,-0.7 -37.2,-3.5 -55,-8.3 l -38.8,40.9 -75.9,-40.6 12.8,-56.3 c -13.1,-12 -24.9,-25.5 -35.2,-40.2 l -58.1,6.5 -32,-79.9 48.1,-36.4 c -2.1,-17 -2.3,-33.8 -0.9,-50.4 l -51,-33.8 26.9,-81.7 62.7,3.1 c 8.7,-13.4 18.6,-25.9 29.8,-37.4 l -17.9,-60.6 73.1,-45.4 46.7,43.3 c 0.8,-0.3 1.6,-0.6 2.4,-0.8"
         style="fill:#4e77f7;fill-opacity:1;fill-rule:nonzero;stroke:none"
         id="path142" /><path
         d="m 14732,12263.3 c 0,0 -10.4,-0.5 -29.8,-1.6 -19.4,-1 -47.9,-2.8 -84.2,-4.3 -36.3,-1.6 -80.3,-3.8 -130.8,-5.5 -50.5,-1.9 -107.5,-4.1 -169.6,-5.7 -62.2,-1.9 -129.5,-3.9 -200.7,-5.2 -71.3,-1.4 -146.4,-3.3 -224.1,-4 -77.6,-0.8 -157.9,-2.5 -239.5,-2.6 -81.6,-0.4 -164.5,-0.7 -247.3,-1.1 -82.9,0.4 -165.8,0.7 -247.4,1.1 -81.6,0 -161.8,1.7 -239.5,2.5 -77.7,0.7 -152.8,2.5 -224.1,4 -71.2,1.3 -138.5,3.3 -200.7,5.2 -62.1,1.6 -119.1,3.8 -169.6,5.7 -50.5,1.8 -94.5,3.9 -130.8,5.6 -36.2,1.5 -64.7,3.3 -84.2,4.3 -19.4,1.1 -29.7,1.6 -29.7,1.6 0,0 10.3,0.6 29.7,1.6 19.5,1 48,2.9 84.2,4.4 36.3,1.6 80.3,3.8 130.8,5.5 50.5,2 107.5,4.1 169.6,5.8 62.2,1.8 129.5,3.8 200.7,5.1 71.3,1.5 146.4,3.3 224.1,4 77.7,0.8 157.9,2.6 239.5,2.6 81.6,0.3 164.5,0.7 247.4,1 82.8,-0.4 165.7,-0.7 247.3,-1 81.6,-0.2 161.9,-1.9 239.5,-2.6 77.7,-0.8 152.8,-2.6 224.1,-4.1 71.2,-1.2 138.5,-3.3 200.7,-5.1 62.1,-1.7 119.1,-3.8 169.6,-5.8 50.5,-1.7 94.5,-3.8 130.8,-5.4 36.3,-1.5 64.8,-3.4 84.2,-4.4 19.4,-1 29.8,-1.6 29.8,-1.6"
         style="fill:#4e77f7;fill-opacity:1;fill-rule:nonzero;stroke:none"
         id="path144" /><path
         d="m 14477,12569.3 c 0,0 -8.4,-0.6 -24.1,-1.7 -15.7,-0.9 -38.7,-2.7 -68,-4.2 -29.3,-1.6 -64.8,-3.8 -105.6,-5.5 -40.8,-1.9 -86.8,-4.1 -137,-5.7 -50.2,-1.9 -104.6,-3.9 -162.1,-5.2 -57.6,-1.4 -118.2,-3.3 -181,-4 -62.7,-0.8 -127.6,-2.5 -193.5,-2.6 -65.9,-0.4 -132.8,-0.7 -199.7,-1.1 -67,0.3 -133.9,0.6 -199.8,0.9 -65.9,0.3 -130.7,1.9 -193.5,2.7 -62.8,0.7 -123.4,2.5 -180.9,4 -57.6,1.3 -112,3.3 -162.2,5.2 -50.2,1.6 -96.2,3.8 -137,5.7 -40.8,1.8 -76.3,3.9 -105.6,5.6 -29.3,1.5 -52.3,3.2 -68,4.2 -15.7,1.1 -24,1.7 -24,1.7 0,0 8.3,0.6 24,1.8 15.7,0.9 38.7,2.7 68,4.2 29.3,1.6 64.8,3.8 105.6,5.5 40.8,2 86.8,4.1 137,5.8 50.2,1.8 104.6,3.8 162.2,5.1 57.5,1.5 118.1,3.3 180.9,4 62.8,0.9 127.6,2.4 193.5,2.7 65.9,0.3 132.8,0.6 199.8,0.9 66.9,-0.4 133.8,-0.7 199.7,-1 65.9,-0.2 130.8,-1.9 193.5,-2.6 62.8,-0.8 123.4,-2.6 181,-4.1 57.5,-1.2 111.9,-3.3 162.1,-5.1 50.2,-1.7 96.2,-3.8 137,-5.8 40.8,-1.7 76.3,-3.8 105.6,-5.4 29.3,-1.6 52.3,-3.3 68,-4.3 15.7,-1.1 24.1,-1.7 24.1,-1.7"
         style="fill:#4e77f7;fill-opacity:1;fill-rule:nonzero;stroke:none"
         id="path146" /><path
         d="m 11193.7,16229.2 c 0,0 -2.6,-0.6 -7.4,-1.8 -4.9,-0.9 -12,-2.7 -21.1,-4.2 -18.1,-3.4 -44,-7.6 -75.1,-11.3 -31.1,-3.8 -67.3,-7.1 -106.2,-9.3 -19.4,-1.1 -39.5,-2 -59.9,-2.5 -20.3,-0.7 -41.1,-0.8 -61.8,-0.9 -20.7,0.1 -41.4,0.2 -61.8,0.9 -20.4,0.4 -40.5,1.4 -59.9,2.5 -38.9,2.1 -75.1,5.4 -106.2,9.2 -31.1,3.7 -57,7.9 -75.1,11.4 -9.1,1.5 -16.2,3.3 -21,4.2 -4.9,1.2 -7.5,1.8 -7.5,1.8 0,0 2.6,0.6 7.5,1.7 4.8,0.9 11.9,2.7 21,4.2 18.1,3.5 44,7.7 75.1,11.4 31.1,3.8 67.3,7.1 106.2,9.3 19.4,1 39.5,2 59.9,2.5 20.4,0.6 41.1,0.7 61.8,0.8 20.7,-0.1 41.5,-0.2 61.8,-0.9 20.4,-0.5 40.5,-1.4 59.9,-2.5 38.9,-2.2 75.1,-5.5 106.2,-9.2 31.1,-3.7 57,-8 75.1,-11.4 9.1,-1.5 16.2,-3.3 21.1,-4.2 4.8,-1.1 7.4,-1.7 7.4,-1.7"
         style="fill:#4e77f7;fill-opacity:1;fill-rule:nonzero;stroke:none"
         id="path148" /><path
         d="m 11193.7,16045.6 c 0,0 -2.6,-0.6 -7.4,-1.8 -4.9,-0.9 -12,-2.7 -21.1,-4.2 -18.1,-3.4 -44,-7.7 -75.1,-11.3 -31.1,-3.8 -67.3,-7.1 -106.2,-9.3 -19.4,-1.1 -39.5,-2 -59.9,-2.5 -20.3,-0.7 -41.1,-0.8 -61.8,-0.9 -20.7,0.1 -41.4,0.2 -61.8,0.8 -20.4,0.5 -40.5,1.5 -59.9,2.5 -38.9,2.2 -75.1,5.5 -106.2,9.3 -31.1,3.7 -57,7.9 -75.1,11.4 -9.1,1.5 -16.2,3.3 -21,4.2 -4.9,1.1 -7.5,1.8 -7.5,1.8 0,0 2.6,0.6 7.5,1.7 4.8,0.9 11.9,2.7 21,4.2 18.1,3.5 44,7.7 75.1,11.4 31.1,3.8 67.3,7.1 106.2,9.3 19.4,1 39.5,2 59.9,2.5 20.4,0.6 41.1,0.7 61.8,0.8 20.7,-0.1 41.5,-0.2 61.8,-0.9 20.4,-0.5 40.5,-1.4 59.9,-2.5 38.9,-2.2 75.1,-5.5 106.2,-9.2 31.1,-3.7 57,-8 75.1,-11.4 9.1,-1.5 16.2,-3.3 21.1,-4.2 4.8,-1.1 7.4,-1.7 7.4,-1.7"
         style="fill:#4e77f7;fill-opacity:1;fill-rule:nonzero;stroke:none"
         id="path150" /><path
         d="m 11193.7,15861.9 c 0,0 -2.6,-0.5 -7.4,-1.7 -4.9,-0.9 -12,-2.7 -21.1,-4.2 -18.1,-3.4 -44,-7.6 -75.1,-11.3 -31.1,-3.8 -67.3,-7.1 -106.2,-9.3 -19.4,-1.1 -39.5,-2 -59.9,-2.5 -20.3,-0.7 -41.1,-0.8 -61.8,-0.9 -20.7,0.1 -41.4,0.2 -61.8,0.9 -20.4,0.4 -40.5,1.4 -59.9,2.5 -38.9,2.1 -75.1,5.4 -106.2,9.2 -31.1,3.7 -57,7.9 -75.1,11.4 -9.1,1.5 -16.2,3.3 -21,4.2 -4.9,1.2 -7.5,1.7 -7.5,1.7 0,0 2.6,0.7 7.5,1.8 4.8,0.9 11.9,2.7 21,4.2 18.1,3.5 44,7.7 75.1,11.4 31.1,3.8 67.3,7.1 106.2,9.3 19.4,1 39.5,2 59.9,2.5 20.4,0.6 41.1,0.7 61.8,0.8 20.7,-0.1 41.5,-0.2 61.8,-0.9 20.4,-0.5 40.5,-1.4 59.9,-2.5 38.9,-2.2 75.1,-5.5 106.2,-9.2 31.1,-3.7 57,-8 75.1,-11.4 9.1,-1.5 16.2,-3.3 21.1,-4.2 4.8,-1.1 7.4,-1.8 7.4,-1.8"
         style="fill:#4e77f7;fill-opacity:1;fill-rule:nonzero;stroke:none"
         id="path152" /></g></g></svg>
